<svg width="20" height="20" viewBox="0 0 20 20" fill="none" xmlns="http://www.w3.org/2000/svg">
<path d="M14.951 11.8973C14.6519 10.813 14.0053 9.85677 13.1104 9.17531C12.2155 8.49385 11.1217 8.12482 9.99692 8.12482C8.8721 8.12482 7.77834 8.49385 6.88344 9.17531C5.98854 9.85677 5.34194 10.813 5.04282 11.8973L4.33001 14.4813C4.20202 14.9453 4.18293 15.4325 4.27421 15.9051C4.36549 16.3776 4.56469 16.8227 4.85626 17.2056C5.14784 17.5885 5.52391 17.8989 5.95516 18.1125C6.38641 18.3262 6.86119 18.4373 7.34247 18.4373H12.6514C13.1327 18.4373 13.6074 18.3262 14.0387 18.1125C14.4699 17.8989 14.846 17.5885 15.1376 17.2056C15.4292 16.8227 15.6283 16.3776 15.7196 15.9051C15.8109 15.4325 15.7918 14.9453 15.6638 14.4813L14.951 11.8973ZM14.1431 16.4481C13.9689 16.6787 13.7435 16.8655 13.4845 16.9939C13.2256 17.1222 12.9403 17.1884 12.6514 17.1873H7.34247C7.0537 17.1873 6.76883 17.1206 6.51007 16.9925C6.25131 16.8643 6.02566 16.678 5.85072 16.4483C5.67577 16.2185 5.55625 15.9515 5.50148 15.668C5.44671 15.3844 5.45817 15.0921 5.53497 14.8137L6.24778 12.2298C6.47415 11.4092 6.96348 10.6855 7.64072 10.1698C8.31796 9.6541 9.14568 9.37483 9.99692 9.37483C10.8482 9.37483 11.6759 9.6541 12.3531 10.1698C13.0304 10.6855 13.5197 11.4092 13.7461 12.2298L14.4589 14.8137C14.5368 15.092 14.5488 15.3846 14.494 15.6683C14.4392 15.952 14.3191 16.219 14.1431 16.4483V16.4481ZM5.70395 8.99632C5.8127 8.31664 5.66848 7.58902 5.2977 6.94699C4.92692 6.30496 4.36879 5.81625 3.72594 5.57058C3.03751 5.30765 2.33532 5.34953 1.74805 5.68843C0.580591 6.3625 0.273365 8.02378 1.06333 9.39175C1.43399 10.0338 1.99215 10.5226 2.63501 10.7682C2.91976 10.8792 3.22246 10.9371 3.52809 10.9389C3.90885 10.9403 4.28317 10.8407 4.6129 10.6503C5.19981 10.3113 5.58731 9.72394 5.70395 8.99632ZM4.46958 8.79875C4.41372 9.14753 4.24262 9.42062 3.98782 9.56773C3.73301 9.71484 3.41098 9.7264 3.0809 9.60042C2.7054 9.45703 2.37329 9.16093 2.14571 8.76675C1.70821 8.00894 1.81219 7.09488 2.37305 6.77097C2.51406 6.69099 2.67373 6.64978 2.83583 6.65152C2.98788 6.65313 3.13837 6.68248 3.27989 6.73812C3.6554 6.8816 3.98751 7.17765 4.21508 7.57183C4.44266 7.96601 4.53301 8.40183 4.46958 8.79875ZM5.83934 6.40675C6.28317 6.76156 6.79001 6.94632 7.30254 6.94628C7.45607 6.94623 7.60914 6.92971 7.75915 6.89703C9.07645 6.61066 9.87516 5.12191 9.53961 3.57835C9.38219 2.8539 8.99946 2.21832 8.46196 1.78859C7.88637 1.32843 7.20458 1.15425 6.54215 1.29832C5.22489 1.58464 4.42618 3.07339 4.76169 4.61695C4.91915 5.34144 5.30188 5.97703 5.83934 6.40675ZM6.80762 2.5198C6.86836 2.50672 6.93033 2.50017 6.99247 2.50027C7.22481 2.50027 7.46379 2.59117 7.68141 2.76515C7.99536 3.01613 8.22149 3.39929 8.31813 3.8441C8.50407 4.69937 8.12649 5.53816 7.49364 5.67574C7.2061 5.73824 6.89579 5.65121 6.61993 5.43062C6.30598 5.1796 6.07985 4.79644 5.98321 4.35167C5.79723 3.49617 6.17481 2.65738 6.80762 2.5198ZM18.2458 5.68843C17.6588 5.34953 16.9562 5.30765 16.2679 5.57058C15.625 5.81617 15.0669 6.30496 14.6962 6.94699C14.3256 7.58902 14.1813 8.31679 14.29 8.99632C14.4065 9.72394 14.7939 10.3113 15.381 10.6503C15.7107 10.8407 16.0851 10.9403 16.4658 10.9389C16.7715 10.9371 17.0742 10.8792 17.3589 10.7682C18.0018 10.5226 18.5599 10.0338 18.9306 9.39175C19.7205 8.02378 19.4132 6.3625 18.2458 5.68843ZM17.8481 8.76675C17.6206 9.16093 17.2884 9.45703 16.9129 9.60042C16.583 9.72652 16.2609 9.71492 16.0061 9.56773C15.7513 9.42054 15.5803 9.14753 15.5243 8.79875C15.4608 8.40183 15.5511 7.96617 15.7788 7.57218C16.0064 7.1782 16.3384 6.88195 16.714 6.73847C16.8555 6.68278 17.0059 6.65338 17.158 6.65171C17.3201 6.64997 17.4798 6.69119 17.6208 6.77117C18.1816 7.0948 18.2857 8.00875 17.8481 8.76675ZM12.2347 6.89703C12.3847 6.92971 12.5378 6.94623 12.6913 6.94628C13.2038 6.94628 13.7108 6.76156 14.1545 6.40675C14.692 5.97707 15.0747 5.34144 15.2322 4.61699C15.5677 3.07343 14.769 1.58468 13.4517 1.29835C12.7893 1.15437 12.1075 1.32843 11.5319 1.78863C10.9944 2.21832 10.6116 2.85394 10.4542 3.57835C10.1187 5.12191 10.9174 6.61066 12.2347 6.89703ZM11.6757 3.8439C11.7723 3.3991 11.9985 3.01578 12.3124 2.76496C12.5301 2.59097 12.769 2.50007 13.0014 2.50007C13.0635 2.49997 13.1255 2.50652 13.1862 2.5196C13.819 2.65718 14.1966 3.49617 14.0107 4.35125C13.914 4.79605 13.6879 5.17937 13.374 5.43023C13.0982 5.65078 12.7881 5.73781 12.5003 5.67535C11.8673 5.53796 11.4898 4.69906 11.6757 3.8439Z" fill="#475569"/>
</svg>
