<svg width="20" height="20" viewBox="0 0 20 20" fill="none" xmlns="http://www.w3.org/2000/svg">
<path d="M8.75 9.58333H11.25M16.6667 6.66667V15.8333C16.6667 16.2754 16.4911 16.6993 16.1785 17.0118C15.866 17.3244 15.442 17.5 15 17.5H5C4.55797 17.5 4.13405 17.3244 3.82149 17.0118C3.50893 16.6993 3.33333 16.2754 3.33333 15.8333V6.66667M17.5 6.66667V4.16667C17.5 3.72464 17.3244 3.30072 17.0118 2.98816C16.6993 2.67559 16.2754 2.5 15.8333 2.5H4.16667C3.72464 2.5 3.30072 2.67559 2.98816 2.98816C2.67559 3.30072 2.5 3.72464 2.5 4.16667V6.66667H17.5Z" stroke="#475569" stroke-width="1.25" stroke-linecap="round" stroke-linejoin="round"/>
</svg>
