<svg width="20" height="20" viewBox="0 0 20 20" fill="none" xmlns="http://www.w3.org/2000/svg">
<path d="M4.99957 4.16667V5.83333M14.9996 4.16667V5.83333M9.99957 2.5V5.83333M12.5137 17.5C12.9762 17.5 13.3512 17.1267 13.3512 16.6667V16.2917C13.3512 16.0358 13.4879 15.8225 13.7121 15.6958C14.3052 15.3626 14.8502 14.9502 15.3321 14.47C16.5427 13.2703 17.3058 11.6922 17.4946 9.99833C17.5454 9.54083 17.1654 9.16667 16.7029 9.16667H3.29624C2.83374 9.16667 2.45374 9.54167 2.50457 9.99833C2.69309 11.6921 3.45596 13.2702 4.66624 14.47C5.12286 14.9251 5.63626 15.3195 6.19374 15.6433C6.46874 15.8042 6.65207 16.0908 6.65041 16.4083V16.6642C6.65041 16.7741 6.67208 16.8829 6.71419 16.9844C6.7563 17.0859 6.81801 17.1781 6.8958 17.2558C6.9736 17.3334 7.06593 17.3949 7.16753 17.4369C7.26913 17.4788 7.378 17.5002 7.48791 17.5H12.5137Z" stroke="#475569" stroke-width="1.25" stroke-linecap="round" stroke-linejoin="round"/>
</svg>
