<svg width="20" height="20" viewBox="0 0 20 20" fill="none" xmlns="http://www.w3.org/2000/svg">
<path d="M17.5 16.4587C17.5 14.717 16.1083 12.2353 14.1667 11.6862M12.5 16.4587C12.5 14.2495 10.2617 11.4587 7.5 11.4587C4.73833 11.4587 2.5 14.2495 2.5 16.4587M12.5 8.54199C13.163 8.54199 13.7989 8.2786 14.2678 7.80976C14.7366 7.34092 15 6.70503 15 6.04199C15 5.37895 14.7366 4.74307 14.2678 4.27423C13.7989 3.80538 13.163 3.54199 12.5 3.54199M10 6.04199C10 6.70503 9.73661 7.34092 9.26777 7.80976C8.79893 8.2786 8.16304 8.54199 7.5 8.54199C6.83696 8.54199 6.20107 8.2786 5.73223 7.80976C5.26339 7.34092 5 6.70503 5 6.04199C5 5.37895 5.26339 4.74307 5.73223 4.27423C6.20107 3.80538 6.83696 3.54199 7.5 3.54199C8.16304 3.54199 8.79893 3.80538 9.26777 4.27423C9.73661 4.74307 10 5.37895 10 6.04199Z" stroke="#475569" stroke-width="1.25" stroke-linecap="round" stroke-linejoin="round"/>
</svg>
