<svg width="20" height="20" viewBox="0 0 20 20" fill="none" xmlns="http://www.w3.org/2000/svg">
<path d="M17.5 10C17.5 10.9849 17.306 11.9602 16.9291 12.8701C16.5522 13.7801 15.9997 14.6069 15.3033 15.3033C14.6069 15.9997 13.7801 16.5522 12.8701 16.9291C11.9602 17.306 10.9849 17.5 10 17.5C9.01509 17.5 8.03982 17.306 7.12987 16.9291C6.21993 16.5522 5.39314 15.9997 4.6967 15.3033C4.00026 14.6069 3.44781 13.7801 3.0709 12.8701C2.69399 11.9602 2.5 10.9849 2.5 10C2.5 8.01088 3.29018 6.10322 4.6967 4.6967C6.10322 3.29018 8.01088 2.5 10 2.5C11.9891 2.5 13.8968 3.29018 15.3033 4.6967C16.7098 6.10322 17.5 8.01088 17.5 10Z" stroke="#475569" stroke-width="1.25" stroke-linecap="round" stroke-linejoin="round"/>
<path d="M7.5 12.5C8.20833 13.025 9.07083 13.3333 10 13.3333C10.9292 13.3333 11.7917 13.025 12.5 12.5M10.2083 2.5C9.9044 2.49999 9.60502 2.57387 9.33597 2.71527C9.06693 2.85667 8.8363 3.06136 8.66394 3.31169C8.49158 3.56203 8.38266 3.85052 8.34656 4.1523C8.31046 4.45408 8.34826 4.76012 8.45672 5.04405C8.56517 5.32798 8.74102 5.58128 8.96911 5.78215C9.19721 5.98302 9.47072 6.12543 9.76609 6.19711C10.0614 6.26879 10.3698 6.26759 10.6646 6.19363C10.9594 6.11966 11.2318 5.97513 11.4583 5.7725M8.125 8.58333C7.94667 8.425 7.73083 8.33333 7.5 8.33333C7.26917 8.33333 7.05333 8.425 6.875 8.58333M13.125 8.58333C12.9467 8.425 12.7308 8.33333 12.5 8.33333C12.2692 8.33333 12.0533 8.425 11.875 8.58333" stroke="#475569" stroke-width="1.25" stroke-linecap="round" stroke-linejoin="round"/>
</svg>
