<svg width="20" height="20" viewBox="0 0 20 20" fill="none" xmlns="http://www.w3.org/2000/svg">
<path d="M10.4665 17.35C10.3305 17.4477 10.1673 17.5002 9.99982 17.5002C9.83237 17.5002 9.66915 17.4477 9.53315 17.35C5.50898 14.4817 1.23815 8.58167 5.55565 4.31833C6.74094 3.15237 8.33718 2.49927 9.99982 2.5C11.6665 2.5 13.2657 3.15417 14.444 4.3175C18.7615 8.58083 14.4907 14.48 10.4665 17.35Z" stroke="#475569" stroke-width="1.25" stroke-linecap="round" stroke-linejoin="round"/>
<path d="M12.5 11.667C12.5 8.44953 7.5 8.44953 7.5 11.667" stroke="#475569" stroke-width="1.25" stroke-linecap="round" stroke-linejoin="round"/>
<path d="M10.0026 9.16634C10.4446 9.16634 10.8686 8.99075 11.1811 8.67819C11.4937 8.36562 11.6693 7.9417 11.6693 7.49967C11.6693 7.05765 11.4937 6.63372 11.1811 6.32116C10.8686 6.0086 10.4446 5.83301 10.0026 5.83301C9.56058 5.83301 9.13665 6.0086 8.82409 6.32116C8.51153 6.63372 8.33594 7.05765 8.33594 7.49967C8.33594 7.9417 8.51153 8.36562 8.82409 8.67819C9.13665 8.99075 9.56058 9.16634 10.0026 9.16634Z" stroke="#475569" stroke-width="1.25" stroke-linecap="round" stroke-linejoin="round"/>
</svg>
