<svg width="20" height="20" viewBox="0 0 20 20" fill="none" xmlns="http://www.w3.org/2000/svg">
<path d="M7.5 5.45049V17.3297M12.5 2.65049V14.5297M2.5 7.16049C2.5 5.88799 2.5 5.25215 2.8275 4.88132C2.94333 4.74882 3.08417 4.64382 3.24167 4.57132C4.42167 4.02715 5.96833 5.45965 7.21667 5.41549C7.38167 5.40937 7.54472 5.3866 7.70583 5.34715C9.52583 4.90132 10.6658 2.78049 12.5375 2.52215C13.61 2.37215 14.7875 3.02049 15.7908 3.36715C16.6158 3.65215 17.0283 3.79465 17.2642 4.13382C17.5 4.47299 17.5 4.92465 17.5 5.82465V12.843C17.5 14.1147 17.5 14.7513 17.1725 15.1222C17.0575 15.2529 16.9164 15.3582 16.7583 15.4313C15.5783 15.9755 14.0317 14.5438 12.7833 14.588C12.6184 14.5943 12.4546 14.6169 12.2942 14.6555C10.4742 15.1013 9.33417 17.2222 7.4625 17.4813C6.395 17.6297 3.42333 16.8563 2.73583 15.8688C2.5 15.5297 2.5 15.0797 2.5 14.178V7.16049Z" stroke="#475569" stroke-width="1.25" stroke-linecap="round" stroke-linejoin="round"/>
</svg>
