<svg width="20" height="20" viewBox="0 0 20 20" fill="none" xmlns="http://www.w3.org/2000/svg">
<path d="M10.4665 17.35C10.3305 17.4477 10.1673 17.5002 9.99982 17.5002C9.83237 17.5002 9.66915 17.4477 9.53315 17.35C5.50898 14.4817 1.23815 8.58167 5.55565 4.31833C6.74094 3.15237 8.33718 2.49927 9.99982 2.5C11.6665 2.5 13.2657 3.15417 14.444 4.3175C18.7615 8.58083 14.4907 14.48 10.4665 17.35Z" stroke="#475569" stroke-width="1.25" stroke-linecap="round" stroke-linejoin="round"/>
<path d="M10.0026 10.0003C10.4446 10.0003 10.8686 9.82473 11.1811 9.51217C11.4937 9.19961 11.6693 8.77569 11.6693 8.33366C11.6693 7.89163 11.4937 7.46771 11.1811 7.15515C10.8686 6.84259 10.4446 6.66699 10.0026 6.66699C9.56058 6.66699 9.13665 6.84259 8.82409 7.15515C8.51153 7.46771 8.33594 7.89163 8.33594 8.33366C8.33594 8.77569 8.51153 9.19961 8.82409 9.51217C9.13665 9.82473 9.56058 10.0003 10.0026 10.0003Z" stroke="#475569" stroke-width="1.25" stroke-linecap="round" stroke-linejoin="round"/>
</svg>
