<svg width="20" height="20" viewBox="0 0 20 20" fill="none" xmlns="http://www.w3.org/2000/svg">
<path d="M12.0859 12.5C12.0859 9.28254 7.08594 9.28254 7.08594 12.5" stroke="#475569" stroke-width="1.25" stroke-linecap="round" stroke-linejoin="round"/>
<path d="M9.58854 9.99935C10.0306 9.99935 10.4545 9.82375 10.7671 9.51119C11.0796 9.19863 11.2552 8.77471 11.2552 8.33268C11.2552 7.89065 11.0796 7.46673 10.7671 7.15417C10.4545 6.84161 10.0306 6.66602 9.58854 6.66602C9.14651 6.66602 8.72259 6.84161 8.41003 7.15417C8.09747 7.46673 7.92188 7.89065 7.92188 8.33268C7.92188 8.77471 8.09747 9.19863 8.41003 9.51119C8.72259 9.82375 9.14651 9.99935 9.58854 9.99935Z" stroke="#475569" stroke-width="1.25" stroke-linecap="round" stroke-linejoin="round"/>
<path d="M14.0801 14.0997L16.6468 16.6663M15.8359 9.58301C15.8359 11.2406 15.1775 12.8303 14.0054 14.0024C12.8333 15.1745 11.2435 15.833 9.58594 15.833C7.92833 15.833 6.33862 15.1745 5.16652 14.0024C3.99442 12.8303 3.33594 11.2406 3.33594 9.58301C3.33594 7.9254 3.99442 6.33569 5.16652 5.16359C6.33862 3.99149 7.92833 3.33301 9.58594 3.33301C11.2435 3.33301 12.8333 3.99149 14.0054 5.16359C15.1775 6.33569 15.8359 7.9254 15.8359 9.58301Z" stroke="#475569" stroke-width="1.25" stroke-linecap="round" stroke-linejoin="round"/>
</svg>
