<svg width="20" height="20" viewBox="0 0 20 20" fill="none" xmlns="http://www.w3.org/2000/svg">
<path d="M12.0885 10.0003C12.0885 9.44779 11.869 8.91789 11.4783 8.52719C11.0876 8.13649 10.5577 7.91699 10.0052 7.91699C9.45267 7.91699 8.92277 8.13649 8.53207 8.52719C8.14137 8.91789 7.92188 9.44779 7.92188 10.0003C7.92188 10.5529 8.14137 11.0828 8.53207 11.4735C8.92277 11.8642 9.45267 12.0837 10.0052 12.0837C10.5577 12.0837 11.0876 11.8642 11.4783 11.4735C11.869 11.0828 12.0885 10.5529 12.0885 10.0003Z" stroke="#475569" stroke-width="1.25" stroke-linecap="round" stroke-linejoin="round"/>
<path d="M8.33609 4.0751C8.33609 5.27093 6.83442 6.18677 5.77442 5.56843C3.88192 4.54927 2.44442 7.35593 4.11609 8.48177C5.13609 9.07677 5.13692 10.8818 4.11609 11.4776C2.31359 12.5701 3.95859 15.3609 5.77442 14.3826C6.92359 13.7126 8.33692 14.8093 8.33692 16.0126C8.33692 18.0218 11.6536 17.9701 11.6536 16.0126C11.6536 14.7868 13.0453 13.7001 14.2153 14.3826C16.0819 15.3884 17.6886 12.4559 15.8736 11.4776C14.8519 10.8818 14.8528 9.06927 15.8736 8.47427C17.6761 7.38177 16.0319 4.59093 14.2153 5.56843C13.1794 6.17343 11.6544 5.26593 11.6536 4.0751C11.6536 1.94177 8.33692 2.00843 8.33692 4.0751" stroke="#475569" stroke-width="1.25" stroke-linecap="round" stroke-linejoin="round"/>
</svg>
