<svg width="20" height="20" viewBox="0 0 20 20" fill="none" xmlns="http://www.w3.org/2000/svg">
<path d="M9.9974 17.5C9.9974 17.5 15.8307 13.6667 15.8307 9.16667M9.9974 17.5C9.9974 17.5 4.16406 13.6667 4.16406 9.16667M9.9974 17.5V2.5M15.8307 9.16667V5.13333C15.8305 5.02844 15.7914 4.92735 15.7211 4.8495C15.6508 4.77166 15.5542 4.72257 15.4499 4.71167C13.7849 4.545 12.1874 3.97 10.7982 3.0375L9.9974 2.5M15.8307 9.16667H4.16406M4.16406 9.16667V5.13333C4.16452 5.02858 4.20365 4.9277 4.27394 4.85003C4.34422 4.77236 4.44071 4.72338 4.5449 4.7125C6.20966 4.54543 7.80745 3.97009 9.19656 3.0375L9.9974 2.5" stroke="#475569" stroke-width="1.25" stroke-linecap="round" stroke-linejoin="round"/>
</svg>
