<svg width="12" height="12" viewBox="0 0 12 12" fill="none" xmlns="http://www.w3.org/2000/svg">
<path d="M11.6249 1V9.125C11.6249 9.29076 11.559 9.44973 11.4418 9.56694C11.3246 9.68415 11.1656 9.75 10.9999 9.75C10.8341 9.75 10.6751 9.68415 10.5579 9.56694C10.4407 9.44973 10.3749 9.29076 10.3749 9.125V2.50859L1.44205 11.4422C1.32477 11.5595 1.16571 11.6253 0.999859 11.6253C0.834007 11.6253 0.674947 11.5595 0.557672 11.4422C0.440396 11.3249 0.374512 11.1659 0.374512 11C0.374512 10.8341 0.440396 10.6751 0.557672 10.5578L9.49127 1.625H2.87486C2.7091 1.625 2.55013 1.55915 2.43292 1.44194C2.31571 1.32473 2.24986 1.16576 2.24986 1C2.24986 0.83424 2.31571 0.675269 2.43292 0.558058C2.55013 0.440848 2.7091 0.375 2.87486 0.375H10.9999C11.1656 0.375 11.3246 0.440848 11.4418 0.558058C11.559 0.675269 11.6249 0.83424 11.6249 1Z" fill="#1E293B"/>
</svg>
