<svg width="22" height="22" viewBox="0 0 22 22" fill="none" xmlns="http://www.w3.org/2000/svg">
<path d="M1.39258 21H20.8926M3.14258 21V5.978C3.14258 4.235 3.14258 3.364 3.46958 2.698C3.75256 2.11849 4.21139 1.64321 4.78058 1.34C5.42258 1 6.26258 1 7.94258 1H8.34258C10.0226 1 10.8626 1 11.5046 1.34C12.0739 1.64347 12.5328 2.11912 12.8156 2.699C13.1426 3.364 13.1426 4.235 13.1426 5.978V21M9.14258 5H7.14258M9.14258 9H7.14258M9.14258 13H7.14258M18.9426 21V10.444C18.9426 8.139 18.1446 7.296 16.0176 7.296H13.1426" stroke="#475569" stroke-width="1.5" stroke-linecap="round" stroke-linejoin="round"/>
</svg>
