<svg width="20" height="19" viewBox="0 0 20 19" fill="none" xmlns="http://www.w3.org/2000/svg">
<path d="M9.875 0.25C7.38943 0.25273 5.00645 1.24133 3.24889 2.99889C1.49133 4.75645 0.50273 7.13943 0.5 9.625V17.5C0.5 17.8978 0.658035 18.2794 0.93934 18.5607C1.22064 18.842 1.60218 19 2 19H9.875C12.3614 19 14.746 18.0123 16.5041 16.2541C18.2623 14.496 19.25 12.1114 19.25 9.625C19.25 7.1386 18.2623 4.75403 16.5041 2.99587C14.746 1.23772 12.3614 0.25 9.875 0.25ZM5.75 11.125C5.5275 11.125 5.30999 11.059 5.12498 10.9354C4.93998 10.8118 4.79578 10.6361 4.71064 10.4305C4.62549 10.225 4.60321 9.99875 4.64662 9.78052C4.69002 9.56229 4.79717 9.36184 4.9545 9.2045C5.11184 9.04717 5.31229 8.94002 5.53052 8.89662C5.74875 8.85321 5.97495 8.87549 6.18052 8.96064C6.38609 9.04578 6.56179 9.18998 6.6854 9.37498C6.80902 9.55999 6.875 9.7775 6.875 10C6.875 10.2984 6.75647 10.5845 6.5455 10.7955C6.33452 11.0065 6.04837 11.125 5.75 11.125ZM9.875 11.125C9.6525 11.125 9.43499 11.059 9.24998 10.9354C9.06498 10.8118 8.92078 10.6361 8.83564 10.4305C8.75049 10.225 8.72821 9.99875 8.77162 9.78052C8.81502 9.56229 8.92217 9.36184 9.0795 9.2045C9.23684 9.04717 9.43729 8.94002 9.65552 8.89662C9.87375 8.85321 10.1 8.87549 10.3055 8.96064C10.5111 9.04578 10.6868 9.18998 10.8104 9.37498C10.934 9.55999 11 9.7775 11 10C11 10.2984 10.8815 10.5845 10.6705 10.7955C10.4595 11.0065 10.1734 11.125 9.875 11.125ZM14 11.125C13.7775 11.125 13.56 11.059 13.375 10.9354C13.19 10.8118 13.0458 10.6361 12.9606 10.4305C12.8755 10.225 12.8532 9.99875 12.8966 9.78052C12.94 9.56229 13.0472 9.36184 13.2045 9.2045C13.3618 9.04717 13.5623 8.94002 13.7805 8.89662C13.9988 8.85321 14.225 8.87549 14.4305 8.96064C14.6361 9.04578 14.8118 9.18998 14.9354 9.37498C15.059 9.55999 15.125 9.7775 15.125 10C15.125 10.2984 15.0065 10.5845 14.7955 10.7955C14.5845 11.0065 14.2984 11.125 14 11.125Z" fill="#94A3B8"/>
</svg>
