<svg width="20" height="20" viewBox="0 0 20 20" fill="none" xmlns="http://www.w3.org/2000/svg">
<path d="M10 0.25C8.07164 0.25 6.18657 0.821828 4.58319 1.89317C2.97982 2.96451 1.73013 4.48726 0.992179 6.26884C0.254225 8.05042 0.061142 10.0108 0.437348 11.9021C0.813554 13.7934 1.74215 15.5307 3.10571 16.8943C4.46928 18.2579 6.20656 19.1865 8.09787 19.5627C9.98919 19.9389 11.9496 19.7458 13.7312 19.0078C15.5127 18.2699 17.0355 17.0202 18.1068 15.4168C19.1782 13.8134 19.75 11.9284 19.75 10C19.7473 7.41498 18.7192 4.93661 16.8913 3.10872C15.0634 1.28084 12.585 0.25273 10 0.25ZM6.625 7C6.84751 7 7.06502 7.06598 7.25002 7.1896C7.43503 7.31321 7.57922 7.48891 7.66437 7.69448C7.74952 7.90005 7.7718 8.12625 7.72839 8.34448C7.68498 8.56271 7.57783 8.76316 7.4205 8.9205C7.26317 9.07783 7.06271 9.18498 6.84448 9.22838C6.62625 9.27179 6.40005 9.24951 6.19449 9.16436C5.98892 9.07922 5.81322 8.93502 5.6896 8.75002C5.56598 8.56501 5.5 8.3475 5.5 8.125C5.5 7.82663 5.61853 7.54048 5.82951 7.3295C6.04049 7.11853 6.32664 7 6.625 7ZM14.3988 12.625C13.4341 14.2928 11.8309 15.25 10 15.25C8.16907 15.25 6.56594 14.2937 5.60125 12.625C5.54699 12.5396 5.51055 12.4442 5.49413 12.3444C5.47772 12.2446 5.48166 12.1425 5.50573 12.0442C5.52979 11.946 5.57348 11.8536 5.63417 11.7727C5.69485 11.6917 5.77128 11.6239 5.85886 11.5733C5.94643 11.5227 6.04334 11.4903 6.14375 11.4781C6.24417 11.4659 6.34601 11.4742 6.44316 11.5023C6.5403 11.5305 6.63074 11.5781 6.70904 11.6421C6.78734 11.7062 6.85187 11.7854 6.89875 11.875C7.59907 13.0853 8.69969 13.75 10 13.75C11.3003 13.75 12.4009 13.0844 13.1013 11.875C13.1481 11.7854 13.2127 11.7062 13.291 11.6421C13.3693 11.5781 13.4597 11.5305 13.5569 11.5023C13.654 11.4742 13.7558 11.4659 13.8563 11.4781C13.9567 11.4903 14.0536 11.5227 14.1412 11.5733C14.2287 11.6239 14.3052 11.6917 14.3658 11.7727C14.4265 11.8536 14.4702 11.946 14.4943 12.0442C14.5183 12.1425 14.5223 12.2446 14.5059 12.3444C14.4895 12.4442 14.453 12.5396 14.3988 12.625ZM13.375 9.25C13.1525 9.25 12.935 9.18402 12.75 9.0604C12.565 8.93679 12.4208 8.76109 12.3356 8.55552C12.2505 8.34995 12.2282 8.12375 12.2716 7.90552C12.315 7.68729 12.4222 7.48684 12.5795 7.3295C12.7368 7.17217 12.9373 7.06502 13.1555 7.02162C13.3738 6.97821 13.6 7.00049 13.8055 7.08564C14.0111 7.17078 14.1868 7.31498 14.3104 7.49998C14.434 7.68499 14.5 7.9025 14.5 8.125C14.5 8.42337 14.3815 8.70952 14.1705 8.9205C13.9595 9.13147 13.6734 9.25 13.375 9.25Z" fill="#94A3B8"/>
</svg>
