<svg width="24" height="24" viewBox="0 0 24 24" fill="none" xmlns="http://www.w3.org/2000/svg">
<path d="M9.67969 13.323L11.0587 14.898C11.0884 14.9314 11.1252 14.9577 11.1665 14.9751C11.2077 14.9924 11.2523 15.0003 11.2969 14.9982C11.3416 14.9961 11.3852 14.984 11.4247 14.9629C11.4641 14.9418 11.4982 14.9121 11.5247 14.876L14.3247 11" stroke="#475569" stroke-width="1.5" stroke-linecap="round" stroke-linejoin="round"/>
<path d="M6.133 21.0003C4.955 21.0003 4 20.0203 4 18.8103V10.0083C4 9.34328 4.295 8.71328 4.8 8.29828L10.667 3.48028C11.0419 3.16986 11.5133 3 12 3C12.4867 3 12.9581 3.16986 13.333 3.48028L19.199 8.29828C19.705 8.71328 20 9.34328 20 10.0083V18.8103C20 20.0203 19.045 21.0003 17.867 21.0003H6.133Z" stroke="#475569" stroke-width="1.5" stroke-linecap="round" stroke-linejoin="round"/>
</svg>
