<svg width="16" height="4" viewBox="0 0 16 4" fill="none" xmlns="http://www.w3.org/2000/svg">
    <path d="M9.125 2C9.125 2.2225 9.05902 2.44001 8.9354 2.62502C8.81179 2.81002 8.63609 2.95422 8.43052 3.03936C8.22495 3.12451 7.99875 3.14679 7.78052 3.10338C7.56229 3.05998 7.36184 2.95283 7.20451 2.79549C7.04717 2.63816 6.94003 2.43771 6.89662 2.21948C6.85321 2.00125 6.87549 1.77505 6.96064 1.56948C7.04578 1.36391 7.18998 1.18821 7.37498 1.0646C7.55999 0.94098 7.7775 0.875 8 0.875C8.29837 0.875 8.58452 0.993526 8.7955 1.2045C9.00647 1.41548 9.125 1.70163 9.125 2ZM14.375 0.875C14.1525 0.875 13.935 0.94098 13.75 1.0646C13.565 1.18821 13.4208 1.36391 13.3356 1.56948C13.2505 1.77505 13.2282 2.00125 13.2716 2.21948C13.315 2.43771 13.4222 2.63816 13.5795 2.79549C13.7368 2.95283 13.9373 3.05998 14.1555 3.10338C14.3738 3.14679 14.6 3.12451 14.8055 3.03936C15.0111 2.95422 15.1868 2.81002 15.3104 2.62502C15.434 2.44001 15.5 2.2225 15.5 2C15.5 1.70163 15.3815 1.41548 15.1705 1.2045C14.9595 0.993526 14.6734 0.875 14.375 0.875ZM1.625 0.875C1.4025 0.875 1.18499 0.94098 0.999984 1.0646C0.814979 1.18821 0.670785 1.36391 0.585636 1.56948C0.500487 1.77505 0.478209 2.00125 0.521617 2.21948C0.565025 2.43771 0.672171 2.63816 0.829505 2.79549C0.986839 2.95283 1.1873 3.05998 1.40552 3.10338C1.62375 3.14679 1.84995 3.12451 2.05552 3.03936C2.26109 2.95422 2.43679 2.81002 2.5604 2.62502C2.68402 2.44001 2.75 2.2225 2.75 2C2.75 1.70163 2.63147 1.41548 2.4205 1.2045C2.20952 0.993526 1.92337 0.875 1.625 0.875Z" fill="#fff"/>
</svg>