<svg width="24" height="25" viewBox="0 0 24 25" fill="none" xmlns="http://www.w3.org/2000/svg">
<path d="M20.0009 5.80859L4.67289 12.1816C4.27789 12.3456 4.08089 12.4286 4.02989 12.5356C4.00778 12.5813 3.99766 12.6319 4.00046 12.6827C4.00325 12.7334 4.01889 12.7826 4.04589 12.8256C4.10889 12.9256 4.31389 12.9856 4.72589 13.1066L10.5009 14.8086M20.0009 5.80859L17.9359 18.8576C17.8959 19.1116 17.8759 19.2386 17.8089 19.3076C17.7806 19.3384 17.7461 19.363 17.7077 19.3797C17.6693 19.3964 17.6278 19.4049 17.5859 19.4046C17.4889 19.4046 17.3809 19.3326 17.1649 19.1886L14.2349 17.2326M20.0009 5.80859L10.5009 14.8086M10.5009 14.8086L10.6569 19.1086C10.6569 19.4426 10.6569 19.6096 10.7259 19.6936C10.7859 19.7676 10.8759 19.8096 10.9719 19.8086C11.0819 19.8076 11.2119 19.7006 11.4719 19.4886L14.2349 17.2326M10.5009 14.8086L14.2349 17.2326" stroke="#475569" stroke-width="1.5" stroke-linecap="round" stroke-linejoin="round"/>
</svg>
