<svg width="21" height="21" viewBox="0 0 21 21" fill="none" xmlns="http://www.w3.org/2000/svg">
<path opacity="0.987" fill-rule="evenodd" clip-rule="evenodd" d="M8.93837 0.091125C10.0259 -0.030375 10.6694 -0.030375 11.8379 0.091125C13.9063 0.397268 15.8237 1.35335 17.3129 2.82113C16.3066 3.77233 15.3135 4.73742 14.3339 5.71612C12.4579 4.12612 10.3639 3.75912 8.05187 4.61513C6.35587 5.39512 5.17487 6.65913 4.50887 8.40713C3.42054 7.59687 2.34637 6.76774 1.28688 5.92013C1.21324 5.88137 1.12915 5.86718 1.04688 5.87962C2.72987 2.63462 5.35988 0.704625 8.93687 0.0896249" fill="#F44336"/>
<path opacity="0.997" fill-rule="evenodd" clip-rule="evenodd" d="M1.04438 5.87954C1.12938 5.86654 1.20988 5.88004 1.28588 5.92004C2.34538 6.76766 3.41954 7.59678 4.50788 8.40704C4.33662 9.08813 4.22866 9.78358 4.18538 10.4845C4.22238 11.1625 4.32988 11.828 4.50788 12.481L1.12538 15.1735C-0.347622 12.0955 -0.374622 8.99754 1.04438 5.87954Z" fill="#FFC107"/>
<path opacity="0.999" fill-rule="evenodd" clip-rule="evenodd" d="M17.1531 18.4341C16.0999 17.5053 14.9973 16.634 13.8501 15.8241C15.0001 15.0121 15.6981 13.8981 15.9441 12.4821H10.3086V8.56863C13.5586 8.54163 16.8071 8.56913 20.0541 8.65113C20.6701 11.9961 19.9586 15.0121 17.9196 17.6991C17.6771 17.9569 17.4203 18.2022 17.1531 18.4341Z" fill="#448AFF"/>
<path opacity="0.993" fill-rule="evenodd" clip-rule="evenodd" d="M4.5075 12.4824C5.7375 15.5394 7.9925 16.9664 11.2725 16.7634C12.1932 16.6568 13.076 16.3352 13.8495 15.8244C14.9975 16.6364 16.0985 17.5064 17.1525 18.4344C15.4825 19.9351 13.3532 20.8255 11.112 20.9604C10.6028 21.0011 10.0912 21.0011 9.582 20.9604C5.764 20.5104 2.945 18.5814 1.125 15.1734L4.5075 12.4824Z" fill="#43A047"/>
</svg>
