<svg width="24" height="24" viewBox="0 0 24 24" fill="none" xmlns="http://www.w3.org/2000/svg">
<path d="M18.25 7H5.75C5.55109 7 5.36032 7.07902 5.21967 7.21967C5.07902 7.36032 5 7.55109 5 7.75C5 7.94891 5.07902 8.13968 5.21967 8.28033C5.36032 8.42098 5.55109 8.5 5.75 8.5H18.25C18.4489 8.5 18.6397 8.42098 18.7803 8.28033C18.921 8.13968 19 7.94891 19 7.75C19 7.55109 18.921 7.36032 18.7803 7.21967C18.6397 7.07902 18.4489 7 18.25 7Z" fill="#1E293B"/>
<path d="M18.25 15H5.75C5.55109 15 5.36032 15.079 5.21967 15.2197C5.07902 15.3603 5 15.5511 5 15.75C5 15.9489 5.07902 16.1397 5.21967 16.2803C5.36032 16.421 5.55109 16.5 5.75 16.5H18.25C18.4489 16.5 18.6397 16.421 18.7803 16.2803C18.921 16.1397 19 15.9489 19 15.75C19 15.5511 18.921 15.3603 18.7803 15.2197C18.6397 15.079 18.4489 15 18.25 15Z" fill="#1E293B"/>
<path d="M18.25 11H5.75C5.55109 11 5.36032 11.079 5.21967 11.2197C5.07902 11.3603 5 11.5511 5 11.75C5 11.9489 5.07902 12.1397 5.21967 12.2803C5.36032 12.421 5.55109 12.5 5.75 12.5H18.25C18.4489 12.5 18.6397 12.421 18.7803 12.2803C18.921 12.1397 19 11.9489 19 11.75C19 11.5511 18.921 11.3603 18.7803 11.2197C18.6397 11.079 18.4489 11 18.25 11Z" fill="#1E293B"/>
</svg>
