<svg width="14" height="14" viewBox="0 0 14 14" fill="none" xmlns="http://www.w3.org/2000/svg">
<path d="M13.125 5.57812C13.125 9.40625 7.44898 12.5048 7.20727 12.6328C7.14356 12.6671 7.07234 12.685 7 12.685C6.92766 12.685 6.85644 12.6671 6.79273 12.6328C6.55102 12.5048 0.875 9.40625 0.875 5.57812C0.876013 4.67919 1.23356 3.81736 1.86921 3.18171C2.50486 2.54606 3.36669 2.18851 4.26562 2.1875C5.39492 2.1875 6.38367 2.67312 7 3.49398C7.61633 2.67312 8.60508 2.1875 9.73438 2.1875C10.6333 2.18851 11.4951 2.54606 12.1308 3.18171C12.7664 3.81736 13.124 4.67919 13.125 5.57812Z" fill="white"/>
</svg>
