<svg width="24" height="25" viewBox="0 0 24 25" fill="none" xmlns="http://www.w3.org/2000/svg">
<path d="M9.5 13.1316L10.879 14.7066C10.9087 14.74 10.9456 14.7663 10.9868 14.7837C11.028 14.801 11.0726 14.8089 11.1173 14.8068C11.1619 14.8047 11.2056 14.7926 11.245 14.7715C11.2844 14.7503 11.3185 14.7207 11.345 14.6846L14.145 10.8086" stroke="#475569" stroke-width="1.5" stroke-linecap="round" stroke-linejoin="round"/>
<path d="M12 21.8086C13.78 21.8086 15.5201 21.2808 17.0001 20.2918C18.4802 19.3029 19.6337 17.8973 20.3149 16.2527C20.9961 14.6082 21.1743 12.7986 20.8271 11.0528C20.4798 9.30696 19.6226 7.70331 18.364 6.44464C17.1053 5.18596 15.5016 4.3288 13.7558 3.98153C12.01 3.63426 10.2004 3.81249 8.55585 4.49368C6.91131 5.17487 5.50571 6.32842 4.51677 7.80847C3.52784 9.28851 3 11.0286 3 12.8086C3 14.2486 3.338 15.6086 3.94 16.8156C4.393 17.7266 3.763 18.9556 3.523 19.8526C3.46983 20.051 3.46982 20.2599 3.52297 20.4583C3.57613 20.6567 3.68057 20.8376 3.8258 20.9828C3.97103 21.128 4.15194 21.2325 4.35033 21.2856C4.54872 21.3388 4.75761 21.3388 4.956 21.2856C5.853 21.0456 7.082 20.4156 7.993 20.8696C9.23821 21.4879 10.6097 21.8093 12 21.8086Z" stroke="#475569" stroke-width="1.5" stroke-linecap="round" stroke-linejoin="round"/>
</svg>
