<svg width="10" height="10" viewBox="0 0 10 10" fill="none" xmlns="http://www.w3.org/2000/svg">
<path d="M4.9974 4.99967C4.53906 4.99967 4.16406 4.62467 4.16406 4.16634C4.16406 3.70801 4.53906 3.33301 4.9974 3.33301C5.45573 3.33301 5.83073 3.70801 5.83073 4.16634C5.83073 4.62467 5.45573 4.99967 4.9974 4.99967ZM7.4974 4.24967C7.4974 2.73717 6.39323 1.66634 4.9974 1.66634C3.60156 1.66634 2.4974 2.73717 2.4974 4.24967C2.4974 5.22467 3.3099 6.51634 4.9974 8.05801C6.6849 6.51634 7.4974 5.22467 7.4974 4.24967ZM4.9974 0.833008C6.7474 0.833008 8.33073 2.17467 8.33073 4.24967C8.33073 5.63301 7.21823 7.27051 4.9974 9.16634C2.77656 7.27051 1.66406 5.63301 1.66406 4.24967C1.66406 2.17467 3.2474 0.833008 4.9974 0.833008Z" fill="#475569"/>
</svg>
