<svg width="95" height="33" viewBox="0 0 95 33" fill="none" xmlns="http://www.w3.org/2000/svg">
<g clip-path="url(#clip0_3002_13941)">
<path d="M2.94835 9.8056C2.99881 9.82434 3.04901 9.83384 3.09947 9.83384C3.23792 9.83384 3.3576 9.75837 3.42207 9.63091C5.15658 6.161 8.29376 3.64875 12.0304 2.73384C13.0426 2.48552 14.0688 2.36123 15.0841 2.36123C15.1927 2.36123 15.3029 2.36281 15.4115 2.36598C15.4918 2.36756 15.5721 2.37073 15.6524 2.37548C18.0512 2.48552 20.3556 3.29672 22.35 4.74153C24.3665 6.19425 25.9435 8.22384 26.9116 10.6168C26.9681 10.7598 27.1052 10.8527 27.2595 10.8527C27.2862 10.8527 27.3132 10.8511 27.3398 10.8448C27.4373 10.8245 27.5224 10.7662 27.5774 10.6828C27.6326 10.5962 27.6498 10.4957 27.6294 10.3999C26.2473 4.63491 21.4969 0.754655 15.5264 0.512667C15.3327 0.50475 15.1378 0.5 14.9457 0.5C12.1517 0.5 9.53104 1.32704 7.36983 2.89138C5.20229 4.46048 3.59539 6.69749 2.72483 9.35461C2.66644 9.54488 2.75944 9.73013 2.94835 9.8056Z" fill="#5774F5"/>
<path d="M25.835 26.4609C25.7626 26.4058 25.6807 26.376 25.5956 26.376C25.4994 26.376 25.4083 26.4153 25.3343 26.4892C24.1319 27.6511 22.8677 28.5771 21.577 29.2405C19.6676 30.2262 17.4908 30.7481 15.2794 30.7481C14.0186 30.7481 12.7718 30.58 11.5789 30.2481C10.5604 29.9807 9.55142 29.5799 8.30331 28.9479C8.24836 28.918 8.18997 28.9038 8.13184 28.9038C8.01374 28.9038 7.90357 28.965 7.82959 29.0706C7.71625 29.2342 7.73368 29.4305 7.8753 29.5611C9.91365 31.4556 12.6619 32.4996 15.6149 32.4996C16.2052 32.4996 16.8065 32.4571 17.4015 32.3737C21.0502 31.8628 24.1557 29.8865 25.9266 26.9497C26.0321 26.7784 25.9959 26.5866 25.8352 26.4607L25.835 26.4609Z" fill="#5774F5"/>
<path d="M5.82398 18.805C7.33814 19.2781 7.73974 20.0202 7.80896 20.5643L12.3501 12.7067L10.5918 9.66456L10.5699 9.64107L10.5572 9.60492L8.85574 6.66016L1.73486 18.9794C2.46988 18.6997 3.2773 18.5519 4.08656 18.5519C4.69873 18.5519 5.28262 18.6369 5.82398 18.805Z" fill="#5774F5"/>
<path d="M8.05291 24.3294C10.5541 24.3294 13.0081 23.7053 15.3833 23.0999C15.6982 23.0197 16.0177 22.9379 16.3403 22.8579H13.3574C13.0771 22.8579 12.816 22.707 12.6757 22.465C12.5357 22.2243 12.5357 21.9227 12.6757 21.6788L15.1062 17.4748L13.0773 13.9658L7.10547 24.2982C7.41565 24.3185 7.73349 24.3296 8.05318 24.3296L8.05291 24.3294Z" fill="#5774F5"/>
<path d="M13.8047 12.7065L16.7088 17.7312H20.1591L17.562 13.2395L15.5297 9.72266L13.8047 12.7065Z" fill="#5774F5"/>
<path d="M22.8114 6.65967L19.0132 13.2329L21.6576 17.8096C21.7993 18.0532 21.7993 18.3551 21.6592 18.5942C21.5192 18.8377 21.2595 18.9887 20.9778 18.9887H15.6842L14.1748 21.6001H31.4483L22.8117 6.65993L22.8114 6.65967Z" fill="#5774F5"/>
<path d="M24.3743 23.1375C24.3035 23.1311 24.2327 23.1264 24.1634 23.1216C24.1082 23.1185 24.0517 23.1137 23.9965 23.1121H23.9949C23.9272 23.1074 23.8612 23.1042 23.7933 23.101C23.7383 23.0979 23.6815 23.0963 23.6234 23.0931H23.6218C23.592 23.0915 23.5621 23.0915 23.5304 23.0899H23.5225L23.4279 23.0868C23.3019 23.0836 23.1777 23.082 23.0517 23.082C22.7919 23.082 22.5275 23.0884 22.2569 23.1024C21.8997 23.1211 21.5327 23.1512 21.1552 23.1937C21.0307 23.2079 20.9034 23.2219 20.7758 23.2393C20.4075 23.2881 20.0281 23.3462 19.6331 23.4169C19.5953 23.4232 19.5575 23.4312 19.5197 23.4372C19.4489 23.4499 19.3765 23.4623 19.3057 23.4766H19.3042C19.2695 23.4829 19.2365 23.4892 19.2019 23.4969L19.1673 23.5032C19.1042 23.5159 19.0413 23.5267 18.9784 23.5409C18.9438 23.5473 18.9092 23.5536 18.8746 23.5613C17.7916 23.7829 16.7244 24.055 15.6935 24.3176C15.4716 24.374 15.2481 24.4308 15.023 24.4873C14.8169 24.5392 14.609 24.5925 14.3997 24.643C13.9292 24.7593 13.4536 24.8725 12.9735 24.9778C12.4477 25.0926 11.9172 25.1979 11.3822 25.2876C11.3727 25.2892 11.3616 25.2908 11.3523 25.2924C10.1608 25.4922 9.08256 25.5879 8.0548 25.5879C7.32453 25.5879 6.60351 25.5375 5.92028 25.4402C5.90125 25.437 5.88408 25.4338 5.86691 25.4307C5.77073 25.418 5.6669 25.4024 5.5599 25.385C4.53531 25.2246 3.07768 24.8929 2.27476 23.8489C1.97727 23.4652 1.85309 22.9841 1.93314 22.5284L1.93631 22.5097C1.93948 22.4954 1.94266 22.4814 1.94741 22.4656C1.97568 22.3336 2.02297 22.203 2.08744 22.0819C2.16617 21.9325 2.26684 21.8006 2.38335 21.689C2.46525 21.6103 2.55641 21.538 2.65892 21.472C3.0761 21.2126 3.59711 21.0852 4.2534 21.0852C4.58709 21.0852 4.90176 21.1182 5.15514 21.1432C5.25897 21.1543 5.36624 21.1591 5.47482 21.1591C5.92028 21.1591 6.30443 21.0709 6.47749 20.9263C6.53244 20.8822 6.55463 20.8413 6.56098 20.7706C6.58158 20.5302 6.12345 20.2156 5.44973 20.0051C5.01854 19.8715 4.55565 19.8037 4.06925 19.8037C2.83065 19.8037 1.61847 20.236 0.826649 20.9593C0.502469 21.2548 0.269439 21.61 0.135751 22.0143C0.104311 22.1056 0.0773615 22.1998 0.0586029 22.2912C0.0395801 22.3869 0.0255772 22.4814 0.0160657 22.5788C0.00364807 22.6793 -0.00110764 22.7817 0.000213392 22.8854C0.00813957 23.8476 0.485031 24.8633 1.24859 25.5407C2.54399 26.6915 4.52263 27.2513 7.29441 27.2513H7.36839C10.2757 27.2402 13.1545 26.4258 15.9374 25.6397L16.0177 25.6162C16.386 25.5125 16.7575 25.4072 17.1305 25.3032C17.1432 25.3 17.1572 25.2953 17.1699 25.2921C17.5776 25.1789 17.949 25.08 18.3065 24.9887C18.3192 24.9855 18.3332 24.9823 18.3459 24.9776C18.7694 24.8675 19.1895 24.7638 19.5972 24.6709L19.627 24.6646H19.6286L19.6318 24.663H19.6349L19.72 24.6427C19.7956 24.6253 19.8727 24.6081 19.9483 24.5923C19.9483 24.5907 19.9499 24.5907 19.9499 24.5907C19.9829 24.5844 20.0175 24.5765 20.0505 24.5704L20.0632 24.5672C20.1324 24.553 20.2017 24.5374 20.2725 24.5231H20.2741C20.282 24.5216 20.2931 24.5184 20.3055 24.5168C20.3182 24.5136 20.3306 24.5105 20.3433 24.5089C20.356 24.5057 20.3668 24.5041 20.3763 24.5026H20.3795L20.389 24.4994C20.7462 24.4255 21.1052 24.3595 21.4514 24.3044C22.1991 24.1817 23.0303 24.1204 23.918 24.1204C24.0171 24.1204 24.118 24.122 24.2171 24.1236H24.2187C24.2815 24.1236 24.3463 24.1252 24.4091 24.1268C24.4689 24.1284 24.5272 24.1299 24.5854 24.1315H24.587C24.653 24.1331 24.7191 24.1363 24.7838 24.1394C24.8422 24.141 24.9003 24.1442 24.9587 24.1474C25.0279 24.1505 25.0971 24.1537 25.1664 24.1584C27.1434 24.2732 29.0763 24.6364 30.5826 24.9918C29.4507 24.2294 27.7225 23.4652 25.1743 23.2042C24.9066 23.1776 24.639 23.1538 24.3745 23.1367L24.3743 23.1375Z" fill="#5774F5"/>
<path d="M15.5298 2.79053L11.8008 9.24109L13.0774 11.4485L14.8497 8.38608C14.9897 8.14409 15.2495 7.99315 15.5298 7.99315C15.7784 7.99315 16.0114 8.11111 16.1578 8.3077L18.286 11.9755L19.5626 9.76676L15.5298 2.79106V2.79053Z" fill="#5774F5"/>
<path d="M40.1938 4.02344H44.8542C46.3475 4.02344 47.4978 5.11252 47.4978 6.6043C47.4978 7.61869 46.9303 8.48426 46.1834 8.84209C47.3337 9.14056 48.1253 10.2296 48.1253 11.5425C48.1253 13.1388 46.9152 14.3173 45.2872 14.3173H40.1941V4.02344H40.1938ZM41.5231 5.26162V8.39454H44.5403C45.3768 8.39454 46.0936 7.7232 46.0936 6.82808C46.0936 5.93296 45.4217 5.26162 44.5403 5.26162H41.5231ZM41.5231 9.57334V13.0791H44.9733C45.9744 13.0791 46.7211 12.3183 46.7211 11.3187C46.7211 10.3191 45.9744 9.57334 44.9733 9.57334H41.5231Z" fill="#5774F5"/>
<path d="M49.2012 10.5127C49.2012 8.24512 50.9489 6.5293 53.2488 6.5293C55.5643 6.5293 57.2964 8.24485 57.2964 10.5127C57.2964 10.6917 57.2814 10.8856 57.2671 11.0498H50.5753C50.7994 12.3924 51.8747 13.3174 53.3088 13.3174C54.3693 13.3174 55.2956 12.8102 55.7284 12.0491H57.1625C56.5649 13.5113 55.0866 14.4957 53.2937 14.4957C50.9489 14.4957 49.2012 12.7804 49.2012 10.5127ZM50.5901 9.90104H55.9371C55.7131 8.63278 54.6377 7.70784 53.2485 7.70784C51.8892 7.70784 50.8437 8.60296 50.5901 9.90104Z" fill="#5774F5"/>
<path d="M58.4329 12.1541H59.7473C59.7473 12.87 60.4041 13.3326 61.3904 13.3326C62.3162 13.3326 62.9286 12.9001 62.9286 12.2884C62.9286 10.6473 58.5523 11.5126 58.5523 8.82722C58.5523 7.43995 59.6577 6.52979 61.3156 6.52979C63.0184 6.52979 64.1239 7.4249 64.1239 8.78263H62.8095C62.8095 8.12633 62.2118 7.69355 61.3006 7.69355C60.4342 7.69355 59.8665 8.09624 59.8665 8.67812C59.8665 10.2744 64.2428 9.42415 64.2428 12.1541C64.2428 13.5564 63.1075 14.4961 61.3751 14.4961C59.5972 14.4961 58.4326 13.5562 58.4326 12.1541H58.4329Z" fill="#5774F5"/>
<path d="M66.3946 12.2586V7.87244H65.0054V6.70895H65.9018C66.2598 6.70895 66.4545 6.51499 66.4545 6.14211V4.60547H67.6791V6.70921H70.1886V7.87271H67.6791V12.1245C67.6791 12.7362 68.0976 13.1389 68.7095 13.1389C69.337 13.1389 69.755 12.7212 69.755 12.0498H70.9054C70.9054 13.4223 70.0094 14.3175 68.6205 14.3175C67.2913 14.3175 66.3948 13.497 66.3948 12.2586H66.3946Z" fill="#5774F5"/>
<path d="M76.6118 7.94676H75.2227V6.76822H76.6118V5.57464C76.6118 4.26178 77.553 3.39648 78.9567 3.39648C80.3757 3.39648 81.287 4.26178 81.287 5.58969H80.1366C80.1366 4.97799 79.7036 4.57529 79.0462 4.57529C78.3445 4.57529 77.8959 5.02285 77.8959 5.69419V6.76849H80.2114V7.94703H77.8959V14.3174H76.6116V7.94703L76.6118 7.94676Z" fill="#5774F5"/>
<path d="M80.9443 10.5127C80.9443 8.24512 82.6915 6.5293 85.007 6.5293C87.3069 6.5293 89.0547 8.24485 89.0547 10.5127C89.0547 12.7806 87.3069 14.4959 85.007 14.4959C82.6915 14.4959 80.9443 12.7804 80.9443 10.5127ZM87.7254 10.5127C87.7254 8.94628 86.5603 7.76774 85.007 7.76774C83.4382 7.76774 82.2736 8.94628 82.2736 10.5127C82.2736 12.0792 83.4382 13.2577 85.007 13.2577C86.5603 13.2577 87.7254 12.0792 87.7254 10.5127Z" fill="#5774F5"/>
<path d="M90.7432 6.70841H92.0275V8.15533C92.61 7.17075 93.5657 6.58887 94.7609 6.58887H94.9998V7.91677H94.7609C93.0581 7.91677 92.0275 8.93117 92.0275 10.4976V14.3169H90.7432V6.70841Z" fill="#5774F5"/>
<path d="M40.8804 26.4844V22.0983H39.4912V20.9345H40.3877C40.7462 20.9345 40.9404 20.7406 40.9404 20.3677V18.8311H42.1655V20.9348H44.6744V22.0986H42.1655V26.3504C42.1655 26.9621 42.5835 27.3648 43.1959 27.3648C43.8234 27.3648 44.2414 26.947 44.2414 26.2757H45.3917C45.3917 27.6482 44.4953 28.5433 43.1063 28.5433C41.7771 28.5433 40.8807 27.7229 40.8807 26.4844H40.8804Z" fill="#5774F5"/>
<path d="M46.5425 20.935H47.8268V22.3819C48.4094 21.3973 49.365 20.8154 50.5603 20.8154H50.7991V22.1433H50.5603C48.8575 22.1433 47.8268 23.1577 47.8268 24.7242V28.5435H46.5425V20.935Z" fill="#5774F5"/>
<path d="M51.2923 24.7393C51.2923 22.4717 52.9203 20.7559 55.1016 20.7559C56.3711 20.7559 57.4166 21.3525 58.0588 22.3073V20.9348H59.3431V26.5441C59.3431 27.0067 59.642 27.3049 60.1048 27.3049H60.2544V28.543H59.8509C58.8205 28.543 58.2078 28.0506 58.0887 27.1407C57.4461 28.1102 56.3859 28.7219 55.1013 28.7219C52.92 28.7219 51.292 27.0064 51.292 24.7388L51.2923 24.7393ZM58.0588 24.7393C58.0588 23.1728 56.8937 21.9943 55.3404 21.9943C53.7716 21.9943 52.6069 23.1728 52.6069 24.7393C52.6069 26.3058 53.7716 27.4843 55.3404 27.4843C56.8937 27.4843 58.0588 26.3058 58.0588 24.7393Z" fill="#5774F5"/>
<path d="M60.688 20.9351H62.152L64.7214 27.0069L67.2902 20.9351H68.7243L65.3784 28.5436H64.0342L60.688 20.9351Z" fill="#5774F5"/>
<path d="M69.1133 24.7393C69.1133 22.4717 70.861 20.7559 73.1609 20.7559C75.4764 20.7559 77.2086 22.4714 77.2086 24.7393C77.2086 24.9182 77.1935 25.1122 77.1792 25.2763H70.4874C70.7115 26.619 71.7868 27.5439 73.2209 27.5439C74.2814 27.5439 75.2077 27.0367 75.6405 26.2757H77.0746C76.477 27.7379 74.9987 28.7222 73.2058 28.7222C70.861 28.7222 69.1133 27.0069 69.1133 24.7393ZM70.5025 24.1276H75.8495C75.6254 22.8593 74.5501 21.9344 73.1609 21.9344C71.8016 21.9344 70.7561 22.8295 70.5025 24.1276Z" fill="#5774F5"/>
<path d="M78.8379 26.6039V17.8018H80.1227V26.3352C80.1227 26.9321 80.4958 27.305 81.1082 27.305H81.5412V28.5432H80.9143C79.57 28.5432 78.8379 27.8423 78.8379 26.6039Z" fill="#5774F5"/>
</g>
<defs>
<clipPath id="clip0_3002_13941">
<rect width="95" height="32" fill="white" transform="translate(0 0.5)"/>
</clipPath>
</defs>
</svg>
