<svg width="15" height="19" viewBox="0 0 15 19" fill="none" xmlns="http://www.w3.org/2000/svg">
<path d="M12.9167 0H2.41675C2.01892 0 1.63739 0.158035 1.35609 0.43934C1.07478 0.720644 0.916748 1.10218 0.916748 1.5V18C0.916815 18.1338 0.952699 18.2652 1.02068 18.3805C1.08866 18.4958 1.18625 18.5908 1.30334 18.6557C1.42042 18.7206 1.55273 18.7529 1.68653 18.7494C1.82033 18.7458 1.95075 18.7066 2.06425 18.6356L7.66675 15.1341L13.2702 18.6356C13.3837 18.7063 13.514 18.7454 13.6477 18.7488C13.7813 18.7522 13.9135 18.7198 14.0304 18.655C14.1473 18.5902 14.2448 18.4953 14.3127 18.3801C14.3807 18.2649 14.4166 18.1337 14.4167 18V1.5C14.4167 1.10218 14.2587 0.720644 13.9774 0.43934C13.6961 0.158035 13.3146 0 12.9167 0ZM12.9167 16.6472L8.06331 13.6144C7.94411 13.5399 7.80638 13.5004 7.66581 13.5004C7.52525 13.5004 7.38751 13.5399 7.26831 13.6144L2.41675 16.6472V1.5H12.9167V16.6472Z" fill="#475569"/>
</svg>
