<svg width="36" height="36" viewBox="0 0 36 36" fill="none" xmlns="http://www.w3.org/2000/svg">
<path d="M0.9375 18C0.9375 27.4237 8.57625 35.0625 18 35.0625C27.4237 35.0625 35.0625 27.4237 35.0625 18C35.0625 8.57625 27.4237 0.9375 18 0.9375C8.57625 0.9375 0.9375 8.57625 0.9375 18ZM18.9713 13.2908L19.0553 13.3432C19.3755 13.5357 19.6958 13.7422 19.9863 13.9452C20.317 14.178 20.6653 14.4475 21.003 14.724L21.073 14.7818C21.5998 15.2105 22.1213 15.6357 22.4923 16.068C22.9368 16.5842 23.25 17.202 23.25 18C23.25 18.798 22.935 19.4158 22.4923 19.932C22.1213 20.3643 21.5998 20.7895 21.0747 21.2183L21.0047 21.276C20.6653 21.5525 20.317 21.822 19.9863 22.0548C19.6824 22.2658 19.3719 22.4671 19.0553 22.6585L18.9713 22.711C18.4603 23.0208 17.9213 23.3498 17.4313 23.5247C17.1046 23.6499 16.7549 23.7036 16.4058 23.6823C16.0045 23.6511 15.6205 23.5054 15.2998 23.2623C14.6558 22.7758 14.4178 22.0863 14.304 21.4947C14.1973 20.9452 14.157 20.2505 14.1133 19.4928L14.108 19.4123C14.0793 18.942 14.0641 18.4711 14.0625 18C14.0625 17.5555 14.08 17.0707 14.108 16.5877L14.1133 16.5073C14.157 15.7495 14.1973 15.0548 14.304 14.5035C14.4178 13.9138 14.654 13.2243 15.3015 12.7395C15.6165 12.5015 15.9875 12.3492 16.404 12.3195C16.7543 12.2977 17.1052 12.3514 17.433 12.477C17.9195 12.652 18.4603 12.9793 18.9713 13.2908Z" fill="white"/>
</svg>
