<svg width="24" height="25" viewBox="0 0 24 25" fill="none" xmlns="http://www.w3.org/2000/svg">
<path d="M7.75 14.6586L10.15 17.0586M7.75 14.6586C7.75 14.6586 9.167 11.1166 11.184 8.65859M7.75 14.6586C2.531 13.3536 7.22 8.65859 11.184 8.65859M10.15 17.0586C10.15 17.0586 13.692 15.6416 16.15 13.6246M10.15 17.0586C11.455 22.2766 16.15 17.5886 16.15 13.6246M11.184 8.65859C13.224 6.17259 16.587 5.05859 19.75 5.05859C19.75 8.22159 18.636 11.5836 16.15 13.6246M14.45 10.2656L15.157 9.55859M5.519 17.3846C4.567 18.1856 4.25 20.5636 4.25 20.5636C4.25 20.5636 6.622 20.2456 7.421 19.2916C7.871 18.7576 7.865 17.9376 7.364 17.4416C7.11631 17.2088 6.79207 17.0745 6.45229 17.064C6.1125 17.0535 5.78059 17.1675 5.519 17.3846Z" stroke="#475569" stroke-width="1.5" stroke-linecap="round" stroke-linejoin="round"/>
</svg>
