<svg width="25" height="24" viewBox="0 0 25 24" fill="none" xmlns="http://www.w3.org/2000/svg">
<path d="M22.7806 11.0307L15.2806 18.5307C15.1757 18.6357 15.042 18.7073 14.8964 18.7362C14.7509 18.7652 14.6 18.7504 14.4629 18.6936C14.3257 18.6368 14.2086 18.5405 14.1262 18.4171C14.0437 18.2936 13.9998 18.1485 13.9999 18.0001V14.2717C8.64682 14.5754 4.97651 18.047 3.94619 19.1467C3.78441 19.3194 3.57225 19.4368 3.33991 19.482C3.10757 19.5272 2.86689 19.498 2.65212 19.3985C2.43735 19.299 2.25943 19.1343 2.14368 18.9279C2.02794 18.7214 1.98026 18.4837 2.00744 18.2485C2.35526 15.2242 4.01182 12.3151 6.67244 10.0576C8.88213 8.1826 11.5681 6.99292 13.9999 6.78479V3.0001C13.9998 2.85168 14.0437 2.70656 14.1262 2.58312C14.2086 2.45967 14.3257 2.36345 14.4629 2.30664C14.6 2.24982 14.7509 2.23497 14.8964 2.26396C15.042 2.29294 15.1757 2.36447 15.2806 2.46948L22.7806 9.96948C22.8503 10.0391 22.9056 10.1218 22.9434 10.2129C22.9811 10.3039 23.0005 10.4015 23.0005 10.5001C23.0005 10.5987 22.9811 10.6963 22.9434 10.7873C22.9056 10.8784 22.8503 10.9611 22.7806 11.0307Z" fill="#94A3B8"/>
</svg>
