<svg width="9" height="14" viewBox="0 0 9 14" fill="none" xmlns="http://www.w3.org/2000/svg">
<path d="M7.05795 13.692L0.807953 7.44205C0.749843 7.384 0.703743 7.31507 0.67229 7.2392C0.640838 7.16332 0.62465 7.08199 0.62465 6.99986C0.62465 6.91772 0.640838 6.8364 0.67229 6.76052C0.703743 6.68465 0.749843 6.61572 0.807953 6.55767L7.05795 0.307672C7.17523 0.190396 7.33429 0.124512 7.50014 0.124512C7.66599 0.124512 7.82505 0.190396 7.94233 0.307672C8.0596 0.424947 8.12549 0.584007 8.12549 0.749859C8.12549 0.915712 8.0596 1.07477 7.94233 1.19205L2.13373 6.99986L7.94233 12.8077C8.0004 12.8657 8.04646 12.9347 8.07789 13.0105C8.10931 13.0864 8.12549 13.1677 8.12549 13.2499C8.12549 13.332 8.10931 13.4133 8.07789 13.4892C8.04646 13.565 8.0004 13.634 7.94233 13.692C7.88426 13.7501 7.81532 13.7962 7.73945 13.8276C7.66358 13.859 7.58226 13.8752 7.50014 13.8752C7.41802 13.8752 7.3367 13.859 7.26083 13.8276C7.18496 13.7962 7.11602 13.7501 7.05795 13.692Z" fill="#CBD5E1"/>
</svg>
