<svg width="24" height="25" viewBox="0 0 24 25" fill="none" xmlns="http://www.w3.org/2000/svg">
<path d="M16 18.8096H8M16 18.8096L18 21.8096M16 18.8096C16.7956 18.8096 17.5587 18.4935 18.1213 17.9309C18.6839 17.3683 19 16.6052 19 15.8096V11.8096M8 18.8096L6 21.8096M8 18.8096C7.20435 18.8096 6.44129 18.4935 5.87868 17.9309C5.31607 17.3683 5 16.6052 5 15.8096V11.8096M19 11.8096H12M19 11.8096V6.80957M5 11.8096H12M5 11.8096V6.80957M8 14.8096V15.8096M16 14.8096V15.8096M12 11.8096V6.80957M5 6.80957H12M5 6.80957C5 6.01392 5.31607 5.25086 5.87868 4.68825C6.44129 4.12564 7.20435 3.80957 8 3.80957H16C16.7956 3.80957 17.5587 4.12564 18.1213 4.68825C18.6839 5.25086 19 6.01392 19 6.80957M12 6.80957H19" stroke="#475569" stroke-width="1.5" stroke-linecap="round" stroke-linejoin="round"/>
</svg>
