<svg width="20" height="20" viewBox="0 0 20 20" fill="none" xmlns="http://www.w3.org/2000/svg">
<path d="M12.134 4.99246L15.53 1.59546C15.9123 1.21935 16.4278 1.00954 16.9641 1.01174C17.5004 1.01393 18.0141 1.22795 18.3933 1.60717C18.7725 1.9864 18.9865 2.5001 18.9887 3.0364C18.9909 3.5727 18.7811 4.08815 18.405 4.47046L15.008 7.86646L16.846 17.0115C17.081 18.1815 14.812 19.8115 14.208 18.2615L11.518 11.3575L8.025 14.8505C8.195 16.8915 8.232 17.5705 6.801 19.0005L4.626 15.3745L1 13.1995C2.43 11.7685 3.109 11.8045 5.15 11.9755L8.643 8.48346L1.739 5.79246C0.189 5.18846 1.819 2.91846 2.989 3.15446L12.134 4.99246Z" stroke="#475569" stroke-width="1.5" stroke-linecap="round" stroke-linejoin="round"/>
</svg>
