<svg width="25" height="24" viewBox="0 0 25 24" fill="none" xmlns="http://www.w3.org/2000/svg">
<path d="M3.57227 16.5H19.5723C20.1027 16.5 20.6114 16.2893 20.9865 15.9142C21.3616 15.5391 21.5723 15.0304 21.5723 14.5V3.5M14.5723 6.5H9.57227M14.5723 6.5C14.5723 2.679 9.57227 2.685 9.57227 6.5M14.5723 6.5H17.5723C17.8375 6.5 18.0918 6.60536 18.2794 6.79289C18.4669 6.98043 18.5723 7.23478 18.5723 7.5V12.5C18.5723 12.7652 18.4669 13.0196 18.2794 13.2071C18.0918 13.3946 17.8375 13.5 17.5723 13.5H6.57227C6.30705 13.5 6.0527 13.3946 5.86516 13.2071C5.67762 13.0196 5.57227 12.7652 5.57227 12.5V7.5C5.57227 7.23478 5.67762 6.98043 5.86516 6.79289C6.0527 6.60536 6.30705 6.5 6.57227 6.5H9.57227M5.57227 18.5C5.57227 19.0304 5.78298 19.5391 6.15805 19.9142C6.53312 20.2893 7.04183 20.5 7.57227 20.5C8.1027 20.5 8.61141 20.2893 8.98648 19.9142C9.36155 19.5391 9.57227 19.0304 9.57227 18.5C9.57227 17.9696 9.36155 17.4609 8.98648 17.0858C8.61141 16.7107 8.1027 16.5 7.57227 16.5C7.04183 16.5 6.53312 16.7107 6.15805 17.0858C5.78298 17.4609 5.57227 17.9696 5.57227 18.5ZM14.5723 18.5C14.5723 19.0304 14.783 19.5391 15.1581 19.9142C15.5331 20.2893 16.0418 20.5 16.5723 20.5C17.1027 20.5 17.6114 20.2893 17.9865 19.9142C18.3616 19.5391 18.5723 19.0304 18.5723 18.5C18.5723 17.9696 18.3616 17.4609 17.9865 17.0858C17.6114 16.7107 17.1027 16.5 16.5723 16.5C16.0418 16.5 15.5331 16.7107 15.1581 17.0858C14.783 17.4609 14.5723 17.9696 14.5723 18.5Z" stroke="#475569" stroke-width="1.5" stroke-linecap="round" stroke-linejoin="round"/>
</svg>
