<svg width="24" height="25" viewBox="0 0 24 25" fill="none" xmlns="http://www.w3.org/2000/svg">
<path d="M12.4363 17.6686C12.3092 17.759 12.1572 17.8076 12.0013 17.8076C11.8453 17.8076 11.6933 17.759 11.5663 17.6686C7.81027 14.9916 3.82327 9.4856 7.85327 5.5066C8.95875 4.417 10.4491 3.80693 12.0013 3.8086C13.5573 3.8086 15.0493 4.4186 16.1493 5.5056C20.1793 9.4846 16.1923 14.9896 12.4363 17.6686Z" stroke="#475569" stroke-width="1.5" stroke-linecap="round" stroke-linejoin="round"/>
<path d="M6.5 17.8086L4.5 21.8086H19.5L17.5 17.8086M12 11.8086C12.5304 11.8086 13.0391 11.5979 13.4142 11.2228C13.7893 10.8477 14 10.339 14 9.80859C14 9.27816 13.7893 8.76945 13.4142 8.39438C13.0391 8.01931 12.5304 7.80859 12 7.80859C11.4696 7.80859 10.9609 8.01931 10.5858 8.39438C10.2107 8.76945 10 9.27816 10 9.80859C10 10.339 10.2107 10.8477 10.5858 11.2228C10.9609 11.5979 11.4696 11.8086 12 11.8086Z" stroke="#475569" stroke-width="1.5" stroke-linecap="round" stroke-linejoin="round"/>
</svg>
