<svg width="12" height="14" viewBox="0 0 12 14" fill="none" xmlns="http://www.w3.org/2000/svg">
<path d="M11 1.88867H9.5V1.38867C9.5 1.25606 9.44732 1.12889 9.35355 1.03512C9.25979 0.94135 9.13261 0.888672 9 0.888672C8.86739 0.888672 8.74021 0.94135 8.64645 1.03512C8.55268 1.12889 8.5 1.25606 8.5 1.38867V1.88867H3.5V1.38867C3.5 1.25606 3.44732 1.12889 3.35355 1.03512C3.25979 0.94135 3.13261 0.888672 3 0.888672C2.86739 0.888672 2.74021 0.94135 2.64645 1.03512C2.55268 1.12889 2.5 1.25606 2.5 1.38867V1.88867H1C0.734784 1.88867 0.48043 1.99403 0.292893 2.18157C0.105357 2.3691 0 2.62346 0 2.88867V12.8887C0 13.1539 0.105357 13.4082 0.292893 13.5958C0.48043 13.7833 0.734784 13.8887 1 13.8887H11C11.2652 13.8887 11.5196 13.7833 11.7071 13.5958C11.8946 13.4082 12 13.1539 12 12.8887V2.88867C12 2.62346 11.8946 2.3691 11.7071 2.18157C11.5196 1.99403 11.2652 1.88867 11 1.88867ZM2.5 2.88867V3.38867C2.5 3.52128 2.55268 3.64846 2.64645 3.74223C2.74021 3.83599 2.86739 3.88867 3 3.88867C3.13261 3.88867 3.25979 3.83599 3.35355 3.74223C3.44732 3.64846 3.5 3.52128 3.5 3.38867V2.88867H8.5V3.38867C8.5 3.52128 8.55268 3.64846 8.64645 3.74223C8.74021 3.83599 8.86739 3.88867 9 3.88867C9.13261 3.88867 9.25979 3.83599 9.35355 3.74223C9.44732 3.64846 9.5 3.52128 9.5 3.38867V2.88867H11V4.88867H1V2.88867H2.5ZM11 12.8887H1V5.88867H11V12.8887Z" fill="#475569"/>
</svg>
