<svg width="24" height="25" viewBox="0 0 24 25" fill="none" xmlns="http://www.w3.org/2000/svg">
<path d="M2.25 22.8096H21.75M4 22.8096V7.78757C4 6.04457 4 5.17357 4.327 4.50757C4.60998 3.92806 5.06882 3.45278 5.638 3.14957C6.28 2.80957 7.12 2.80957 8.8 2.80957H9.2C10.88 2.80957 11.72 2.80957 12.362 3.14957C12.9313 3.45304 13.3902 3.92869 13.673 4.50857C14 5.17357 14 6.04457 14 7.78757V22.8096M10 6.80957H8M10 10.8096H8M10 14.8096H8M19.8 22.8096V12.2536C19.8 9.94857 19.002 9.10557 16.875 9.10557H14" stroke="#475569" stroke-width="1.5" stroke-linecap="round" stroke-linejoin="round"/>
</svg>
