<svg width="25" height="24" viewBox="0 0 25 24" fill="none" xmlns="http://www.w3.org/2000/svg">
<path d="M21.7844 9.99C15.1744 9.082 9.47442 13.99 9.85742 20.5M7.35742 8C7.35742 8.53043 7.56814 9.03914 7.94321 9.41421C8.31828 9.78929 8.82699 10 9.35742 10C9.88785 10 10.3966 9.78929 10.7716 9.41421C11.1467 9.03914 11.3574 8.53043 11.3574 8C11.3574 7.46957 11.1467 6.96086 10.7716 6.58579C10.3966 6.21071 9.88785 6 9.35742 6C8.82699 6 8.31828 6.21071 7.94321 6.58579C7.56814 6.96086 7.35742 7.46957 7.35742 8Z" stroke="#475569" stroke-width="1.5" stroke-linecap="round" stroke-linejoin="round"/>
<path d="M3.85742 13.0657C6.63742 12.6807 9.13242 14.0237 10.4814 16.1657" stroke="#475569" stroke-width="1.5" stroke-linecap="round" stroke-linejoin="round"/>
<path d="M3.85742 9.4C3.85742 7.16 3.85742 6.04 4.29342 5.184C4.67691 4.43139 5.28881 3.81949 6.04142 3.436C6.89742 3 8.01742 3 10.2574 3H15.4574C17.6974 3 18.8174 3 19.6734 3.436C20.426 3.81949 21.0379 4.43139 21.4214 5.184C21.8574 6.04 21.8574 7.16 21.8574 9.4V14.6C21.8574 16.84 21.8574 17.96 21.4214 18.816C21.0379 19.5686 20.426 20.1805 19.6734 20.564C18.8174 21 17.6974 21 15.4574 21H10.2574C8.01742 21 6.89742 21 6.04142 20.564C5.28881 20.1805 4.67691 19.5686 4.29342 18.816C3.85742 17.96 3.85742 16.84 3.85742 14.6V9.4Z" stroke="#475569" stroke-width="1.5" stroke-linecap="round" stroke-linejoin="round"/>
</svg>
