<svg width="24" height="25" viewBox="0 0 24 25" fill="none" xmlns="http://www.w3.org/2000/svg">
<path d="M12 9.74806V18.8081M17 9.74806V18.8081M7 9.74806V18.8081M12.447 3.91406L20.211 7.82206C21.155 8.29706 20.819 9.72906 19.764 9.72906H4.236C3.181 9.72906 2.845 8.29706 3.789 7.82206L11.553 3.91406C11.6918 3.8447 11.8448 3.80859 12 3.80859C12.1552 3.80859 12.3082 3.8447 12.447 3.91406ZM19.5 21.8081H4.5C4.10218 21.8081 3.72064 21.65 3.43934 21.3687C3.15804 21.0874 3 20.7059 3 20.3081C3 19.9102 3.15804 19.5287 3.43934 19.2474C3.72064 18.9661 4.10218 18.8081 4.5 18.8081H19.5C19.8978 18.8081 20.2794 18.9661 20.5607 19.2474C20.842 19.5287 21 19.9102 21 20.3081C21 20.7059 20.842 21.0874 20.5607 21.3687C20.2794 21.65 19.8978 21.8081 19.5 21.8081Z" stroke="#475569" stroke-width="1.5" stroke-linecap="round" stroke-linejoin="round"/>
</svg>
