<svg width="24" height="25" viewBox="0 0 24 25" fill="none" xmlns="http://www.w3.org/2000/svg">
<path d="M8.786 6.14257H15.214M8.786 6.14257C8.786 4.30257 10.225 2.80957 12 2.80957C13.775 2.80957 15.214 4.30157 15.214 6.14257M8.786 6.14257C6.419 6.14257 4.5 8.13257 4.5 10.5876V21.2536C4.5 22.1136 5.46 22.8096 6.643 22.8096H17.357C18.541 22.8096 19.5 22.1136 19.5 21.2536V10.5876C19.5 8.13257 17.581 6.14257 15.214 6.14257M10.393 12.8096H13.607C14.495 12.8096 15.214 12.0636 15.214 11.1426C15.214 10.2226 14.494 9.47657 13.607 9.47657H10.393C9.505 9.47657 8.786 10.2226 8.786 11.1426C8.786 12.0626 9.506 12.8096 10.393 12.8096ZM15.214 22.8096V18.3656C15.214 17.1376 14.254 16.1426 13.071 16.1426H10.93C9.746 16.1426 8.787 17.1376 8.787 18.3656V22.8096H15.214Z" stroke="#475569" stroke-width="1.5" stroke-linecap="round" stroke-linejoin="round"/>
</svg>
