<svg width="8" height="10" viewBox="0 0 8 10" fill="none" xmlns="http://www.w3.org/2000/svg">
<path d="M3.9974 4.99967C3.53906 4.99967 3.16406 4.62467 3.16406 4.16634C3.16406 3.70801 3.53906 3.33301 3.9974 3.33301C4.45573 3.33301 4.83073 3.70801 4.83073 4.16634C4.83073 4.62467 4.45573 4.99967 3.9974 4.99967ZM6.4974 4.24967C6.4974 2.73717 5.39323 1.66634 3.9974 1.66634C2.60156 1.66634 1.4974 2.73717 1.4974 4.24967C1.4974 5.22467 2.3099 6.51634 3.9974 8.05801C5.6849 6.51634 6.4974 5.22467 6.4974 4.24967ZM3.9974 0.833008C5.7474 0.833008 7.33073 2.17467 7.33073 4.24967C7.33073 5.63301 6.21823 7.27051 3.9974 9.16634C1.77656 7.27051 0.664062 5.63301 0.664062 4.24967C0.664062 2.17467 2.2474 0.833008 3.9974 0.833008Z" fill="white" fill-opacity="0.75"/>
</svg>
