<svg width="24" height="25" viewBox="0 0 24 25" fill="none" xmlns="http://www.w3.org/2000/svg">
<path d="M12.0004 8.8096V13.8096M16.1304 10.8256L15.3534 13.7236M7.87041 10.8276L8.64741 13.7256M4.02341 14.8926L9.26341 18.4656C9.61041 18.7016 9.77341 19.1326 9.67341 19.5446C9.51541 20.1906 9.54041 20.9686 10.3534 21.1346C11.4934 21.3686 12.2314 21.3676 13.3674 21.1346C14.2054 20.9636 14.1974 20.1596 14.0374 19.5046C13.991 19.3136 14.0008 19.1133 14.0655 18.9277C14.1303 18.7422 14.2473 18.5793 14.4024 18.4586L19.9194 14.8926C20.8024 14.2136 20.6544 11.2926 19.6414 10.7626C19.3594 10.6156 19.1584 10.2276 19.2814 9.9326C20.0844 7.9846 18.3354 6.8886 17.1104 6.5126C17.0479 6.49316 16.9905 6.45999 16.9424 6.41553C16.8943 6.37107 16.8567 6.31643 16.8324 6.2556C15.6694 3.3986 13.3454 4.2696 12.1044 5.2216C12.0333 5.27737 11.9464 5.30931 11.8561 5.3129C11.7659 5.31649 11.6767 5.29155 11.6014 5.2416C9.14041 3.6196 7.83941 5.3456 7.40341 6.6696C7.37591 6.75565 7.32314 6.83142 7.25198 6.88707C7.18082 6.94272 7.09455 6.97566 7.00441 6.9816C4.57241 7.1256 4.31941 8.9856 4.58741 10.3686C4.64941 10.6886 4.33141 11.0056 4.05841 11.1756C3.34841 11.6186 3.29241 14.3936 4.02341 14.8926Z" stroke="#475569" stroke-width="1.5" stroke-linecap="round" stroke-linejoin="round"/>
</svg>
