<svg width="24" height="25" viewBox="0 0 24 25" fill="none" xmlns="http://www.w3.org/2000/svg">
<path d="M3 17.4043H19C19.5304 17.4043 20.0391 17.1936 20.4142 16.8185C20.7893 16.4434 21 15.9347 21 15.4043V4.4043M14 7.4043H9M14 7.4043C14 3.5833 9 3.5893 9 7.4043M14 7.4043H17C17.2652 7.4043 17.5196 7.50965 17.7071 7.69719C17.8946 7.88473 18 8.13908 18 8.4043V13.4043C18 13.6695 17.8946 13.9239 17.7071 14.1114C17.5196 14.2989 17.2652 14.4043 17 14.4043H6C5.73478 14.4043 5.48043 14.2989 5.29289 14.1114C5.10536 13.9239 5 13.6695 5 13.4043V8.4043C5 8.13908 5.10536 7.88473 5.29289 7.69719C5.48043 7.50965 5.73478 7.4043 6 7.4043H9M5 19.4043C5 19.9347 5.21071 20.4434 5.58579 20.8185C5.96086 21.1936 6.46957 21.4043 7 21.4043C7.53043 21.4043 8.03914 21.1936 8.41421 20.8185C8.78929 20.4434 9 19.9347 9 19.4043C9 18.8739 8.78929 18.3652 8.41421 17.9901C8.03914 17.615 7.53043 17.4043 7 17.4043C6.46957 17.4043 5.96086 17.615 5.58579 17.9901C5.21071 18.3652 5 18.8739 5 19.4043ZM14 19.4043C14 19.9347 14.2107 20.4434 14.5858 20.8185C14.9609 21.1936 15.4696 21.4043 16 21.4043C16.5304 21.4043 17.0391 21.1936 17.4142 20.8185C17.7893 20.4434 18 19.9347 18 19.4043C18 18.8739 17.7893 18.3652 17.4142 17.9901C17.0391 17.615 16.5304 17.4043 16 17.4043C15.4696 17.4043 14.9609 17.615 14.5858 17.9901C14.2107 18.3652 14 18.8739 14 19.4043Z" stroke="#475569" stroke-width="1.5" stroke-linecap="round" stroke-linejoin="round"/>
</svg>
