<svg width="24" height="25" viewBox="0 0 24 25" fill="none" xmlns="http://www.w3.org/2000/svg">
<path d="M12 9.30806V16.3081M8.99996 14.5581L15 11.0581M8.99996 11.0581L15 14.5581M9.71297 4.44806C10.294 3.95306 10.585 3.70506 10.889 3.56006C11.2359 3.39451 11.6155 3.30859 12 3.30859C12.3844 3.30859 12.764 3.39451 13.111 3.56006C13.415 3.70506 13.706 3.95306 14.287 4.44806C14.886 4.95806 15.494 5.21606 16.294 5.27906C17.055 5.34006 17.436 5.37106 17.754 5.48306C18.488 5.74306 19.066 6.32006 19.325 7.05506C19.437 7.37206 19.468 7.75306 19.529 8.51506C19.592 9.31506 19.849 9.92206 20.359 10.5211C20.855 11.1021 21.103 11.3931 21.248 11.6971C21.584 12.4001 21.584 13.2171 21.248 13.9191C21.103 14.2231 20.855 14.5141 20.36 15.0951C19.8644 15.6511 19.5715 16.3584 19.529 17.1021C19.468 17.8631 19.437 18.2441 19.325 18.5621C19.1966 18.9245 18.9888 19.2537 18.7168 19.5255C18.4448 19.7973 18.1155 20.0049 17.753 20.1331C17.436 20.2451 17.055 20.2761 16.293 20.3371C15.493 20.4001 14.886 20.6571 14.287 21.1671C13.706 21.6631 13.415 21.9111 13.111 22.0561C12.764 22.2216 12.3844 22.3075 12 22.3075C11.6155 22.3075 11.2359 22.2216 10.889 22.0561C10.585 21.9111 10.294 21.6631 9.71297 21.1681C9.15692 20.6725 8.44957 20.3796 7.70596 20.3371C6.94496 20.2761 6.56396 20.2451 6.24596 20.1331C5.88351 20.0047 5.55434 19.7969 5.28252 19.5249C5.01071 19.2529 4.80313 18.9236 4.67496 18.5611C4.56296 18.2441 4.53196 17.8631 4.47096 17.1011C4.42845 16.3579 4.13595 15.651 3.64096 15.0951C3.14496 14.5141 2.89696 14.2231 2.75096 13.9191C2.58557 13.572 2.49983 13.1924 2.5 12.8079C2.50017 12.4235 2.58626 12.044 2.75196 11.6971C2.89696 11.3931 3.14496 11.1021 3.63996 10.5211C4.15996 9.91006 4.40896 9.29806 4.47096 8.51406C4.53196 7.75306 4.56296 7.37206 4.67496 7.05406C4.80336 6.6916 5.01115 6.36243 5.28314 6.09062C5.55512 5.8188 5.88443 5.61122 6.24696 5.48306C6.56396 5.37106 6.94496 5.34006 7.70696 5.27906C8.4501 5.23655 9.15704 4.94305 9.71297 4.44806Z" stroke="#475569" stroke-width="1.5" stroke-linecap="round" stroke-linejoin="round"/>
</svg>
