<svg width="24" height="25" viewBox="0 0 24 25" fill="none" xmlns="http://www.w3.org/2000/svg">
<path d="M2 3.80859C2 3.54338 2.10536 3.28902 2.29289 3.10149C2.48043 2.91395 2.73478 2.80859 3 2.80859C3.26522 2.80859 3.51957 2.91395 3.70711 3.10149C3.89464 3.28902 4 3.54338 4 3.80859V14.1736L6.217 12.3276L6.551 12.0616C7.337 11.4716 8.161 11.0956 9.063 11.1516C10.084 11.2176 10.927 11.8216 11.683 12.5776L11.69 12.5836L11.94 12.8226C12.496 13.3216 12.849 13.4326 13.083 13.4366C13.363 13.4406 13.783 13.2946 14.496 12.6706L20.342 7.55559C20.5419 7.38271 20.8022 7.29601 21.0659 7.31445C21.3295 7.33289 21.5752 7.45497 21.7491 7.654C21.923 7.85304 22.0111 8.11283 21.994 8.3766C21.9769 8.64036 21.8561 8.88664 21.658 9.06159L15.812 14.1756C14.994 14.8916 14.096 15.4496 13.058 15.4356C12.138 15.4246 11.335 14.9706 10.591 14.2986L10.275 13.9986L10.269 13.9916C9.614 13.3366 9.214 13.1656 8.937 13.1486C8.703 13.1336 8.347 13.2156 7.762 13.6536L7.497 13.8636L4.006 16.7716C4.012 17.2346 4.024 17.6206 4.051 17.9536C4.101 18.5596 4.193 18.9076 4.327 19.1706L4.442 19.3766C4.731 19.8466 5.144 20.2296 5.638 20.4816L5.741 20.5306C5.992 20.6386 6.325 20.7146 6.854 20.7576C7.471 20.8086 8.264 20.8086 9.4 20.8086H21L21.102 20.8136C21.3487 20.8384 21.5774 20.9539 21.7437 21.1377C21.91 21.3216 22.0021 21.5607 22.0021 21.8086C22.0021 22.0565 21.91 22.2956 21.7437 22.4795C21.5774 22.6633 21.3487 22.7788 21.102 22.8036L21 22.8086H9.4C8.297 22.8086 7.409 22.8096 6.691 22.7506C6.054 22.6986 5.483 22.5966 4.954 22.3696L4.73 22.2636C3.84934 21.8151 3.12136 21.1156 2.638 20.2536L2.545 20.0786C2.243 19.4856 2.117 18.8456 2.058 18.1176C2.01992 17.5471 2.00224 16.9754 2.005 16.4036C1.99895 16.3421 1.99862 16.2802 2.004 16.2186C2.00133 15.9626 2 15.6926 2 15.4086V3.80859Z" fill="#475569"/>
</svg>
