<svg width="24" height="25" viewBox="0 0 24 25" fill="none" xmlns="http://www.w3.org/2000/svg">
<path d="M17 20.3085C17 18.6515 14.761 17.3085 12 17.3085C9.239 17.3085 7 18.6515 7 20.3085M21 17.3085C21 16.0785 19.766 15.0215 18 14.5585M3 17.3085C3 16.0785 4.234 15.0215 6 14.5585M18 10.5445C18.2963 10.2826 18.5378 9.9647 18.7108 9.6091C18.8838 9.2535 18.9847 8.86721 19.0079 8.47246C19.031 8.0777 18.9759 7.68227 18.8456 7.30889C18.7154 6.93552 18.5127 6.59158 18.249 6.29684C17.9854 6.00211 17.6661 5.7624 17.3095 5.5915C16.9529 5.42061 16.5661 5.3219 16.1712 5.30105C15.7763 5.2802 15.3812 5.33762 15.0086 5.47002C14.636 5.60241 14.2932 5.80716 14 6.0725M6 10.5445C5.4123 10.0126 5.05896 9.26982 5.01717 8.4783C4.97538 7.68677 5.24853 6.91087 5.77696 6.32009C6.30539 5.72931 7.04614 5.37166 7.83741 5.32527C8.62868 5.27887 9.40616 5.54751 10 6.0725M12 14.3085C11.2044 14.3085 10.4413 13.9924 9.87868 13.4298C9.31607 12.8672 9 12.1041 9 11.3085C9 10.5128 9.31607 9.74979 9.87868 9.18718C10.4413 8.62457 11.2044 8.3085 12 8.3085C12.7956 8.3085 13.5587 8.62457 14.1213 9.18718C14.6839 9.74979 15 10.5128 15 11.3085C15 12.1041 14.6839 12.8672 14.1213 13.4298C13.5587 13.9924 12.7956 14.3085 12 14.3085Z" stroke="#475569" stroke-width="1.5" stroke-linecap="round" stroke-linejoin="round"/>
</svg>
