<svg width="24" height="25" viewBox="0 0 24 25" fill="none" xmlns="http://www.w3.org/2000/svg">
<path d="M14.885 8.29272H9.115M14.885 8.29272C14.885 3.64372 9.115 3.65072 9.115 8.29272M14.885 8.29272H18.346C18.983 8.29272 19.5 8.83772 19.5 9.50872V15.5917C19.5 16.2637 18.983 16.8087 18.346 16.8087H5.654C5.017 16.8087 4.5 16.2637 4.5 15.5917V9.50872C4.5 8.83772 5.017 8.29272 5.654 8.29272H9.115M9 19.8087L10 21.8087M13 19.8087L14 21.8087M17 19.8087L18 21.8087M21 19.8087H3M5 19.8087L6 21.8087" stroke="#475569" stroke-width="1.5" stroke-linecap="round" stroke-linejoin="round"/>
</svg>
