<svg width="18" height="16" viewBox="0 0 18 16" fill="none" xmlns="http://www.w3.org/2000/svg">
<path d="M18 7.99993C18 8.19884 17.921 8.38961 17.7803 8.53026C17.6397 8.67091 17.4489 8.74993 17.25 8.74993H2.56032L8.03063 14.2193C8.10031 14.289 8.15559 14.3717 8.1933 14.4628C8.23101 14.5538 8.25042 14.6514 8.25042 14.7499C8.25042 14.8485 8.23101 14.9461 8.1933 15.0371C8.15559 15.1281 8.10031 15.2109 8.03063 15.2806C7.96095 15.3502 7.87822 15.4055 7.78718 15.4432C7.69613 15.4809 7.59855 15.5003 7.5 15.5003C7.40146 15.5003 7.30387 15.4809 7.21283 15.4432C7.12179 15.4055 7.03906 15.3502 6.96938 15.2806L0.219377 8.53055C0.149645 8.4609 0.094326 8.37818 0.0565827 8.28713C0.0188395 8.19609 -0.000587463 8.09849 -0.000587463 7.99993C-0.000587463 7.90137 0.0188395 7.80377 0.0565827 7.71272C0.094326 7.62168 0.149645 7.53896 0.219377 7.4693L6.96938 0.719304C7.11011 0.578573 7.30098 0.499512 7.5 0.499512C7.69903 0.499512 7.8899 0.578573 8.03063 0.719304C8.17136 0.860034 8.25042 1.05091 8.25042 1.24993C8.25042 1.44895 8.17136 1.63982 8.03063 1.78055L2.56032 7.24993H17.25C17.4489 7.24993 17.6397 7.32895 17.7803 7.4696C17.921 7.61025 18 7.80102 18 7.99993Z" fill="#475569"/>
</svg>
