<svg width="12" height="12" viewBox="0 0 12 12" fill="none" xmlns="http://www.w3.org/2000/svg">
<path d="M6.65625 6.00011C6.65625 6.1299 6.61776 6.25678 6.54565 6.3647C6.47354 6.47262 6.37105 6.55673 6.25114 6.6064C6.13122 6.65607 5.99927 6.66907 5.87197 6.64375C5.74467 6.61843 5.62774 6.55593 5.53596 6.46415C5.44418 6.37237 5.38168 6.25544 5.35636 6.12814C5.33104 6.00084 5.34403 5.86889 5.3937 5.74897C5.44337 5.62906 5.52749 5.52657 5.63541 5.45446C5.74333 5.38235 5.87021 5.34386 6 5.34386C6.17405 5.34386 6.34097 5.413 6.46404 5.53607C6.58711 5.65914 6.65625 5.82606 6.65625 6.00011ZM3.59375 5.34386C3.46396 5.34386 3.33708 5.38235 3.22916 5.45446C3.12124 5.52657 3.03712 5.62906 2.98745 5.74897C2.93778 5.86889 2.92479 6.00084 2.95011 6.12814C2.97543 6.25544 3.03793 6.37237 3.12971 6.46415C3.22149 6.55593 3.33842 6.61843 3.46572 6.64375C3.59302 6.66907 3.72497 6.65607 3.84489 6.6064C3.9648 6.55673 4.06729 6.47262 4.1394 6.3647C4.21151 6.25678 4.25 6.1299 4.25 6.00011C4.25 5.82606 4.18086 5.65914 4.05779 5.53607C3.93472 5.413 3.7678 5.34386 3.59375 5.34386ZM8.40625 5.34386C8.27646 5.34386 8.14958 5.38235 8.04166 5.45446C7.93374 5.52657 7.84962 5.62906 7.79995 5.74897C7.75028 5.86889 7.73729 6.00084 7.76261 6.12814C7.78793 6.25544 7.85043 6.37237 7.94221 6.46415C8.03399 6.55593 8.15092 6.61843 8.27822 6.64375C8.40552 6.66907 8.53747 6.65607 8.65739 6.6064C8.7773 6.55673 8.87979 6.47262 8.9519 6.3647C9.02401 6.25678 9.0625 6.1299 9.0625 6.00011C9.0625 5.82606 8.99336 5.65914 8.87029 5.53607C8.74722 5.413 8.5803 5.34386 8.40625 5.34386ZM11.6875 6.00011C11.6877 6.98204 11.4337 7.9473 10.9502 8.80194C10.4667 9.65658 9.77013 10.3715 8.92835 10.877C8.08658 11.3826 7.12824 11.6616 6.14664 11.687C5.16503 11.7123 4.19359 11.483 3.32687 11.0215L1.46477 11.6422C1.31059 11.6936 1.14515 11.7011 0.986976 11.6638C0.828802 11.6264 0.684149 11.5458 0.569231 11.4309C0.454313 11.316 0.37367 11.1713 0.336342 11.0131C0.299014 10.855 0.306476 10.6895 0.35789 10.5353L0.978594 8.67323C0.572894 7.91047 0.346295 7.0653 0.315999 6.20189C0.285702 5.33848 0.452503 4.47951 0.803741 3.69018C1.15498 2.90086 1.68142 2.20192 2.34311 1.64643C3.0048 1.09094 3.78434 0.693494 4.62257 0.484259C5.46079 0.275024 6.33567 0.259499 7.18079 0.438865C8.02591 0.61823 8.81907 0.98777 9.50005 1.51944C10.181 2.0511 10.7319 2.73092 11.111 3.50729C11.49 4.28365 11.6871 5.13616 11.6875 6.00011ZM10.8125 6.00011C10.8123 5.2619 10.6423 4.53362 10.3155 3.87164C9.98884 3.20966 9.51423 2.63171 8.92841 2.1825C8.3426 1.7333 7.6613 1.42488 6.93722 1.28112C6.21314 1.13735 5.46569 1.16209 4.75271 1.35342C4.03972 1.54475 3.3803 1.89754 2.82547 2.3845C2.27065 2.87145 1.83528 3.47952 1.55306 4.16166C1.27085 4.8438 1.14934 5.58172 1.19794 6.31833C1.24655 7.05494 1.46396 7.7705 1.83336 8.40964C1.86436 8.4633 1.88361 8.52293 1.88984 8.58459C1.89606 8.64625 1.88911 8.70853 1.86945 8.7673L1.1875 10.8126L3.23281 10.1307C3.27736 10.1155 3.3241 10.1077 3.37117 10.1077C3.44801 10.1078 3.52346 10.1282 3.58992 10.1667C4.32153 10.59 5.15172 10.8132 5.99696 10.8137C6.8422 10.8142 7.67267 10.5922 8.40481 10.1698C9.13696 9.74742 9.74495 9.13968 10.1676 8.4077C10.5903 7.67573 10.8127 6.84535 10.8125 6.00011Z" fill="white"/>
</svg>
