<svg width="21" height="20" viewBox="0 0 21 20" fill="none" xmlns="http://www.w3.org/2000/svg">
<path d="M19.7148 10C19.7148 11.1819 19.4821 12.3522 19.0298 13.4442C18.5775 14.5361 17.9145 15.5282 17.0788 16.364C16.2431 17.1997 15.2509 17.8626 14.159 18.3149C13.0671 18.7672 11.8967 19 10.7148 19C9.53295 19 8.36262 18.7672 7.27069 18.3149C6.17876 17.8626 5.18661 17.1997 4.35088 16.364C3.51516 15.5282 2.85222 14.5361 2.39993 13.4442C1.94764 12.3522 1.71484 11.1819 1.71484 10C1.71484 7.61305 2.66306 5.32387 4.35088 3.63604C6.03871 1.94821 8.3279 1 10.7148 1C13.1018 1 15.391 1.94821 17.0788 3.63604C18.7666 5.32387 19.7148 7.61305 19.7148 10Z" stroke="#475569" stroke-width="1.5" stroke-linecap="round" stroke-linejoin="round"/>
<path d="M11.7148 1.04785C11.0804 1.58119 10.5884 2.26389 10.2833 3.03455C9.9781 3.80521 9.86933 4.63964 9.96671 5.46277C10.0641 6.2859 10.3646 7.07191 10.8412 7.75008C11.3177 8.42825 11.9554 8.97731 12.6968 9.34785C14.7148 10.3609 15.4858 8.99585 16.5778 9.73185C17.2878 10.2099 17.4748 11.1719 16.9978 11.8809C16.4968 12.6229 15.7148 12.9999 15.8498 14.2169C15.9268 14.9039 16.3488 15.4949 16.8948 15.9999M2.71484 7.27985C3.83572 7.55168 4.8275 8.20415 5.52084 9.12585C6.26267 10.1057 6.616 11.3252 6.51284 12.5499C6.46084 13.1759 6.86884 13.8079 7.39384 14.1529C7.74142 14.3806 8.03196 14.6852 8.24302 15.0432C8.45407 15.4011 8.57998 15.8028 8.61101 16.2172C8.64204 16.6316 8.57735 17.0476 8.42196 17.433C8.26657 17.8184 8.02463 18.1629 7.71484 18.4399" stroke="#475569" stroke-width="1.5" stroke-linecap="round" stroke-linejoin="round"/>
</svg>
