<svg width="9" height="14" viewBox="0 0 9 14" fill="none" xmlns="http://www.w3.org/2000/svg">
<path d="M1.94205 0.307952L8.19205 6.55795C8.25016 6.616 8.29626 6.68493 8.32771 6.7608C8.35916 6.83668 8.37535 6.91801 8.37535 7.00014C8.37535 7.08228 8.35916 7.1636 8.32771 7.23948C8.29626 7.31535 8.25016 7.38428 8.19205 7.44233L1.94205 13.6923C1.82477 13.8096 1.66571 13.8755 1.49986 13.8755C1.33401 13.8755 1.17495 13.8096 1.05767 13.6923C0.940396 13.5751 0.874512 13.416 0.874512 13.2501C0.874512 13.0843 0.940396 12.9252 1.05767 12.808L6.86627 7.00014L1.05767 1.19233C0.999603 1.13426 0.95354 1.06532 0.922113 0.98945C0.890687 0.91358 0.874512 0.832262 0.874512 0.75014C0.874512 0.668018 0.890687 0.586701 0.922113 0.51083C0.95354 0.434959 0.999603 0.366021 1.05767 0.307952C1.11574 0.249884 1.18468 0.203821 1.26055 0.172395C1.33642 0.140968 1.41774 0.124792 1.49986 0.124792C1.58198 0.124792 1.6633 0.140968 1.73917 0.172395C1.81504 0.203821 1.88398 0.249884 1.94205 0.307952Z" fill="#475569"/>
</svg>
