<svg width="22" height="11" viewBox="0 0 22 11" fill="none" xmlns="http://www.w3.org/2000/svg">
<path d="M17.75 5.75C17.75 5.94891 17.671 6.13968 17.5303 6.28033C17.3897 6.42098 17.1989 6.5 17 6.5H5C4.80109 6.5 4.61032 6.42098 4.46967 6.28033C4.32902 6.13968 4.25 5.94891 4.25 5.75C4.25 5.55109 4.32902 5.36032 4.46967 5.21967C4.61032 5.07902 4.80109 5 5 5H17C17.1989 5 17.3897 5.07902 17.5303 5.21967C17.671 5.36032 17.75 5.55109 17.75 5.75ZM20.75 0.5H1.25C1.05109 0.5 0.860322 0.579018 0.71967 0.71967C0.579018 0.860322 0.5 1.05109 0.5 1.25C0.5 1.44891 0.579018 1.63968 0.71967 1.78033C0.860322 1.92098 1.05109 2 1.25 2H20.75C20.9489 2 21.1397 1.92098 21.2803 1.78033C21.421 1.63968 21.5 1.44891 21.5 1.25C21.5 1.05109 21.421 0.860322 21.2803 0.71967C21.1397 0.579018 20.9489 0.5 20.75 0.5ZM13.25 9.5H8.75C8.55109 9.5 8.36032 9.57902 8.21967 9.71967C8.07902 9.86032 8 10.0511 8 10.25C8 10.4489 8.07902 10.6397 8.21967 10.7803C8.36032 10.921 8.55109 11 8.75 11H13.25C13.4489 11 13.6397 10.921 13.7803 10.7803C13.921 10.6397 14 10.4489 14 10.25C14 10.0511 13.921 9.86032 13.7803 9.71967C13.6397 9.57902 13.4489 9.5 13.25 9.5Z" fill="#1E293B"/>
</svg>
