<svg width="12" height="12" viewBox="0 0 12 12" fill="none" xmlns="http://www.w3.org/2000/svg">
<path d="M9.55833 10.0833C11.7254 7.91625 11.81 4.45533 9.81267 2.18733M9.81267 2.18733L11.25 0.75M9.81267 2.18733L6.58333 5.41667M8.33333 8.33333C8.95215 7.71448 9.2998 6.87516 9.2998 6C9.2998 5.12484 8.95215 4.28552 8.33333 3.66667M0.75 11.25L3.17667 8.82333M3.17667 8.82333C3.6095 9.48308 4.92317 11.25 6.58333 11.25V5.41667M3.17667 8.82333L6.58333 5.41667M6.58333 3.08333V0.75C4.54167 0.75 3.025 3.37792 3.025 3.37792C3.025 3.37792 0.75 3.03667 0.75 3.96125V7.99442C0.75 8.22192 0.887667 8.37358 1.09417 8.47158" stroke="white" stroke-width="0.875" stroke-linecap="round" stroke-linejoin="round"/>
</svg>
