<svg width="20" height="20" viewBox="0 0 20 20" fill="none" xmlns="http://www.w3.org/2000/svg">
<path d="M17.5 10C17.5 10.9849 17.306 11.9602 16.9291 12.8701C16.5522 13.7801 15.9997 14.6069 15.3033 15.3033C14.6069 15.9997 13.7801 16.5522 12.8701 16.9291C11.9602 17.306 10.9849 17.5 10 17.5C9.01509 17.5 8.03982 17.306 7.12987 16.9291C6.21993 16.5522 5.39314 15.9997 4.6967 15.3033C4.00026 14.6069 3.44781 13.7801 3.0709 12.8701C2.69399 11.9602 2.5 10.9849 2.5 10C2.5 8.01088 3.29018 6.10322 4.6967 4.6967C6.10322 3.29018 8.01088 2.5 10 2.5C11.9891 2.5 13.8968 3.29018 15.3033 4.6967C16.7098 6.10322 17.5 8.01088 17.5 10Z" stroke="#475569" stroke-width="1.25" stroke-linecap="round" stroke-linejoin="round"/>
<path d="M11.035 8.92508C11.595 9.38091 11.875 9.60925 11.875 10.0001C11.875 10.3909 11.595 10.6192 11.035 11.0751C10.8808 11.2017 10.7267 11.3209 10.5867 11.4192C10.4535 11.512 10.3173 11.6004 10.1783 11.6842C9.62 12.0234 9.34 12.1934 9.09 12.0051C8.84 11.8167 8.81667 11.4242 8.77083 10.6367C8.7581 10.4248 8.75115 10.2125 8.75 10.0001C8.75 9.80425 8.75833 9.58591 8.77083 9.36341C8.81667 8.57591 8.83917 8.18258 9.09 7.99508C9.34 7.80675 9.62 7.97675 10.1783 8.31591C10.3233 8.40425 10.4625 8.49425 10.5867 8.58091C10.7275 8.67925 10.8808 8.79841 11.035 8.92425" stroke="#475569" stroke-width="1.25" stroke-linecap="round" stroke-linejoin="round"/>
</svg>
