<svg width="44" height="44" viewBox="0 0 44 44" fill="none" xmlns="http://www.w3.org/2000/svg">
<path d="M4.12718 12.7952C4.1978 12.821 4.26841 12.8339 4.33902 12.8339C4.53291 12.8339 4.70047 12.7305 4.79023 12.5555C7.21623 7.78447 11.6062 4.33045 16.8341 3.0722C18.2499 2.73032 19.6861 2.55997 21.1068 2.55997C21.2588 2.55997 21.4132 2.56232 21.5652 2.56702C21.6777 2.56937 21.7902 2.57407 21.9027 2.57994C25.2586 2.7315 28.4829 3.84642 31.2728 5.83307C34.0937 7.83029 36.3007 10.6217 37.6543 13.9112C37.7333 14.1074 37.9248 14.2355 38.1414 14.2355C38.1785 14.2355 38.2168 14.2332 38.2539 14.2249C38.3904 14.1967 38.5089 14.1168 38.5867 14.0017C38.6632 13.883 38.6884 13.7444 38.6597 13.6128C36.7244 5.68504 30.0783 0.350101 21.7255 0.0176226C21.4551 0.00704902 21.1822 0 20.9129 0C17.004 0 13.3369 1.13724 10.3137 3.28837C7.28086 5.44537 5.03319 8.52227 3.81481 12.1748C3.73342 12.4368 3.86268 12.6918 4.12718 12.7952Z" fill="#002FFF" fill-opacity="0.62"/>
<path d="M36.1475 35.6974C36.0458 35.6222 35.9321 35.5811 35.8124 35.5811C35.6783 35.5811 35.5503 35.6351 35.4473 35.7361C33.7646 37.3339 31.9969 38.6074 30.1908 39.5191C27.5195 40.8749 24.4735 41.5927 21.3797 41.5927C19.6155 41.5927 17.8717 41.3613 16.2021 40.9054C14.7767 40.5377 13.3656 39.9867 11.6194 39.1173C11.5428 39.0762 11.4614 39.0562 11.3789 39.0562C11.2137 39.0562 11.0593 39.1408 10.9564 39.2853C10.7984 39.5097 10.8223 39.7799 11.0198 39.9597C13.8719 42.5643 17.7173 43.9999 21.8488 43.9999C22.6747 43.9999 23.516 43.9412 24.3478 43.8272C29.4524 43.1247 33.7981 40.4073 36.2756 36.3694C36.4228 36.1332 36.3725 35.8701 36.1475 35.6974Z" fill="#002FFF" fill-opacity="0.62"/>
<path d="M8.15106 25.17C10.2695 25.8209 10.8308 26.8407 10.9277 27.589L17.2818 16.784L14.8223 12.6005L14.7911 12.5676L14.7732 12.5182L12.3927 8.46973L2.42896 25.4097C3.45704 25.0244 4.58686 24.8223 5.71907 24.8223C6.57601 24.8223 7.39226 24.9386 8.14986 25.17H8.15106Z" fill="#002FFF" fill-opacity="0.62"/>
<path d="M11.2688 32.7662C14.7684 32.7662 18.201 31.9074 21.5246 31.0756C21.965 30.9652 22.4126 30.8524 22.8639 30.7431H18.6905C18.2979 30.7431 17.9329 30.5352 17.7366 30.2027C17.5403 29.8714 17.5403 29.4567 17.7366 29.1219L21.1368 23.3417L18.2979 18.5166L9.94275 32.7239C10.3772 32.7521 10.8212 32.7674 11.2688 32.7674V32.7662Z" fill="#002FFF" fill-opacity="0.62"/>
<path d="M19.3164 16.7837L23.3797 23.6929H28.2065L24.5729 17.5168L21.7292 12.6812L19.3164 16.7837Z" fill="#002FFF" fill-opacity="0.62"/>
<path d="M31.9167 8.46973L26.6027 17.5077L30.3021 23.8002C30.5008 24.135 30.5008 24.5509 30.3045 24.8787C30.1082 25.2135 29.7456 25.4215 29.3506 25.4215H21.9446L19.8322 29.0118H44L31.9167 8.46973Z" fill="#002FFF" fill-opacity="0.62"/>
<path d="M34.1044 31.1274C34.0051 31.1192 33.9057 31.1121 33.8088 31.1062C33.7322 31.1015 33.652 31.0957 33.5754 31.0933H33.573C33.4784 31.0863 33.3863 31.0827 33.2905 31.078C33.2139 31.0733 33.1338 31.071 33.0524 31.0675H33.05C33.0081 31.0651 32.9662 31.0651 32.9219 31.0628H32.9111L32.7795 31.0581C32.6035 31.0534 32.4288 31.051 32.2529 31.051C31.889 31.051 31.5192 31.0592 31.141 31.0792C30.6407 31.1051 30.1285 31.1462 29.5995 31.2049C29.4259 31.2249 29.2476 31.2437 29.0693 31.2672C28.5534 31.3342 28.0232 31.414 27.4703 31.5116C27.4176 31.5198 27.365 31.5315 27.3111 31.5398C27.2118 31.5574 27.1112 31.5738 27.0119 31.5938H27.0095C26.9616 31.602 26.915 31.6114 26.8659 31.622L26.818 31.6302C26.7295 31.6478 26.6421 31.6631 26.5535 31.6819C26.5044 31.6901 26.4566 31.6995 26.4087 31.7101C24.8935 32.0144 23.3998 32.3892 21.9576 32.7498C21.6477 32.8274 21.3341 32.9049 21.0193 32.9836C20.7309 33.0553 20.44 33.1281 20.1468 33.1974C19.4886 33.3572 18.8231 33.5135 18.1517 33.658C17.4156 33.8154 16.6736 33.9611 15.9256 34.0833C15.9124 34.0856 15.8968 34.088 15.8837 34.0903C14.2165 34.3652 12.7084 34.4968 11.2698 34.4968C10.2477 34.4968 9.2388 34.4275 8.28372 34.2936C8.25739 34.2889 8.23346 34.2853 8.20832 34.2806C8.07428 34.263 7.92826 34.2419 7.77866 34.2184C6.34484 33.9975 4.30542 33.5417 3.18278 32.106C2.76628 31.5785 2.59274 30.9171 2.70524 30.2897L2.71003 30.2639C2.71482 30.2439 2.71841 30.2251 2.72559 30.2028C2.76509 30.0207 2.83091 29.8421 2.92187 29.6753C3.03198 29.4697 3.17321 29.2888 3.33598 29.1349C3.45088 29.0268 3.57774 28.9269 3.72136 28.8365C4.30542 28.4793 5.0343 28.3042 5.95228 28.3042C6.41904 28.3042 6.85948 28.3501 7.21375 28.3841C7.35856 28.3994 7.50937 28.4053 7.66137 28.4053C8.28492 28.4053 8.8223 28.2843 9.06406 28.0857C9.14066 28.0246 9.17178 27.9694 9.18016 27.8719C9.20888 27.5406 8.56857 27.1083 7.62546 26.8193C7.02225 26.636 6.37476 26.542 5.69376 26.542C3.96073 26.542 2.26481 27.1365 1.15653 28.1304C0.702927 28.5369 0.377386 29.0256 0.189482 29.5813C0.145199 29.707 0.108097 29.8362 0.0817661 29.9619C0.0554356 30.0935 0.0350893 30.2239 0.021924 30.3579C0.00397137 30.4965 -0.00201284 30.6363 0.000380847 30.7796C0.0111524 32.1025 0.67899 33.4994 1.74657 34.431C3.55859 36.0135 6.32689 36.783 10.2059 36.783H10.31C14.378 36.7678 18.4054 35.6482 22.2987 34.5673L22.4112 34.5344C22.9271 34.3923 23.4465 34.2466 23.9683 34.1044C23.9863 34.0997 24.0054 34.0938 24.0234 34.0891C24.5943 33.9341 25.1137 33.7978 25.614 33.6721C25.6319 33.6674 25.6511 33.6639 25.669 33.6568C26.2615 33.5053 26.8491 33.3631 27.42 33.235L27.4619 33.2268H27.4643L27.4691 33.2245H27.4739L27.5924 33.1963C27.6977 33.1728 27.8054 33.1493 27.9119 33.127C27.9119 33.1246 27.9143 33.1246 27.9143 33.1246C27.961 33.1164 28.0089 33.1046 28.0556 33.0964L28.0735 33.0917C28.1704 33.0717 28.2674 33.0506 28.3667 33.0306H28.3691C28.3799 33.0283 28.3955 33.0236 28.4134 33.0224C28.4314 33.0177 28.4481 33.0142 28.4661 33.0118C28.484 33.0071 28.4996 33.0048 28.5127 33.0036H28.5175L28.5307 32.9989C29.031 32.8979 29.5325 32.8062 30.0172 32.731C31.0632 32.5619 32.2265 32.4784 33.4677 32.4784C33.6065 32.4784 33.7477 32.4808 33.8866 32.4831H33.889C33.9775 32.4831 34.0673 32.4855 34.1559 32.4878C34.2396 32.4902 34.321 32.4925 34.4024 32.4949H34.4048C34.497 32.4972 34.5903 32.5019 34.6801 32.5055C34.7615 32.5078 34.8428 32.5125 34.9242 32.516C35.0212 32.5207 35.1181 32.5243 35.2151 32.5313C37.981 32.6887 40.6858 33.188 42.7935 33.6768C41.21 32.6288 38.7924 31.5773 35.227 31.219C34.8524 31.1826 34.4778 31.1497 34.108 31.1262L34.1044 31.1274Z" fill="#002FFF" fill-opacity="0.62"/>
<path d="M21.7291 3.1499L16.5121 12.0199L18.2978 15.0545L20.7776 10.8439C20.9739 10.5114 21.3366 10.3035 21.7291 10.3035C22.0774 10.3035 22.4029 10.4656 22.6076 10.7358L25.5853 15.7794L27.371 12.7424L21.7291 3.1499Z" fill="#002FFF" fill-opacity="0.62"/>
</svg>
