<svg width="20" height="20" viewBox="0 0 20 20" fill="none" xmlns="http://www.w3.org/2000/svg">
<path d="M4.16479 16.875C4.16479 17.22 4.44479 17.5 4.78979 17.5H13.6665C14.6356 17.5 14.9981 17.1958 14.9981 16.1667V14.9625M4.16479 16.875C4.16479 16.3777 4.36233 15.9008 4.71396 15.5492C5.0656 15.1975 5.54251 15 6.03979 15H14.4998C14.6881 15 14.8542 14.9875 14.9981 14.9625M4.16479 16.875V5.16667C4.16479 4.22 4.10479 3.17583 5.07479 2.68167C5.43146 2.5 5.89812 2.5 6.83146 2.5H14.4981C15.5281 2.5 15.8315 2.86417 15.8315 3.83333V13.6667C15.8315 14.4958 15.5965 14.8542 14.9981 14.9625" stroke="#475569" stroke-width="1.25" stroke-linecap="round" stroke-linejoin="round"/>
<path d="M10.3333 7.16667L8.66667 8.33333M10.3333 10.8333L8.66667 9.66667M8.66667 9C8.66667 9.22101 8.57887 9.43298 8.42259 9.58926C8.26631 9.74554 8.05435 9.83333 7.83333 9.83333C7.61232 9.83333 7.40036 9.74554 7.24408 9.58926C7.0878 9.43298 7 9.22101 7 9C7 8.77899 7.0878 8.56702 7.24408 8.41074C7.40036 8.25446 7.61232 8.16667 7.83333 8.16667C8.05435 8.16667 8.26631 8.25446 8.42259 8.41074C8.57887 8.56702 8.66667 8.77899 8.66667 9ZM12 11.1667C12 11.3877 11.9122 11.5996 11.7559 11.7559C11.5996 11.9122 11.3877 12 11.1667 12C10.9457 12 10.7337 11.9122 10.5774 11.7559C10.4211 11.5996 10.3333 11.3877 10.3333 11.1667C10.3333 10.9457 10.4211 10.7337 10.5774 10.5774C10.7337 10.4211 10.9457 10.3333 11.1667 10.3333C11.3877 10.3333 11.5996 10.4211 11.7559 10.5774C11.9122 10.7337 12 10.9457 12 11.1667ZM12 6.83333C12 7.05435 11.9122 7.26631 11.7559 7.42259C11.5996 7.57887 11.3877 7.66667 11.1667 7.66667C10.9457 7.66667 10.7337 7.57887 10.5774 7.42259C10.4211 7.26631 10.3333 7.05435 10.3333 6.83333C10.3333 6.61232 10.4211 6.40036 10.5774 6.24408C10.7337 6.0878 10.9457 6 11.1667 6C11.3877 6 11.5996 6.0878 11.7559 6.24408C11.9122 6.40036 12 6.61232 12 6.83333Z" stroke="#475569" stroke-width="1.25" stroke-linecap="round" stroke-linejoin="round"/>
</svg>
