<svg width="20" height="20" viewBox="0 0 20 20" fill="none" xmlns="http://www.w3.org/2000/svg">
<path d="M4.16479 16.875C4.16479 17.22 4.44479 17.5 4.78979 17.5H13.6665C14.6356 17.5 14.9981 17.1958 14.9981 16.1667V14.9625M4.16479 16.875C4.16479 16.3777 4.36233 15.9008 4.71396 15.5492C5.0656 15.1975 5.54251 15 6.03979 15H14.4998C14.6881 15 14.8542 14.9875 14.9981 14.9625M4.16479 16.875V5.16667C4.16479 4.22 4.10479 3.17583 5.07479 2.68167C5.43146 2.5 5.89812 2.5 6.83146 2.5H14.4981C15.5281 2.5 15.8315 2.86417 15.8315 3.83333V13.6667C15.8315 14.4958 15.5965 14.8542 14.9981 14.9625" stroke="#475569" stroke-width="1.25" stroke-linecap="round" stroke-linejoin="round"/>
<path d="M15.8281 7.61083C12.2415 8.3925 9.49896 11.2842 9.17813 15M7.07812 6.66667C7.07812 7.10869 7.25372 7.53262 7.56628 7.84518C7.87884 8.15774 8.30276 8.33333 8.74479 8.33333C9.18682 8.33333 9.61074 8.15774 9.9233 7.84518C10.2359 7.53262 10.4115 7.10869 10.4115 6.66667C10.4115 6.22464 10.2359 5.80072 9.9233 5.48816C9.61074 5.17559 9.18682 5 8.74479 5C8.30276 5 7.87884 5.17559 7.56628 5.48816C7.25372 5.80072 7.07812 6.22464 7.07812 6.66667Z" stroke="#475569" stroke-width="1.25" stroke-linecap="round" stroke-linejoin="round"/>
<path d="M4.16406 10.0547C6.48073 9.7339 8.5599 10.8531 9.68406 12.6381" stroke="#475569" stroke-width="1.25" stroke-linecap="round" stroke-linejoin="round"/>
</svg>
