<svg width="20" height="20" viewBox="0 0 20 20" fill="none" xmlns="http://www.w3.org/2000/svg">
<path d="M4.16479 16.875C4.16479 17.22 4.44479 17.5 4.78979 17.5H13.6665C14.6356 17.5 14.9981 17.1958 14.9981 16.1667V14.9625M4.16479 16.875C4.16479 16.3777 4.36233 15.9008 4.71396 15.5492C5.0656 15.1975 5.54251 15 6.03979 15H14.4998C14.6881 15 14.8542 14.9875 14.9981 14.9625M4.16479 16.875V5.16667C4.16479 4.22 4.10479 3.17583 5.07479 2.68167C5.43146 2.5 5.89812 2.5 6.83146 2.5H14.4981C15.5281 2.5 15.8315 2.86417 15.8315 3.83333V13.6667C15.8315 14.4958 15.5965 14.8542 14.9981 14.9625" stroke="#475569" stroke-width="1.25" stroke-linecap="round" stroke-linejoin="round"/>
<path d="M12.5 11.667C12.5 8.44953 7.5 8.44953 7.5 11.667" stroke="#475569" stroke-width="1.25" stroke-linecap="round" stroke-linejoin="round"/>
<path d="M9.99479 9.16634C10.4368 9.16634 10.8607 8.99075 11.1733 8.67819C11.4859 8.36562 11.6615 7.9417 11.6615 7.49967C11.6615 7.05765 11.4859 6.63372 11.1733 6.32116C10.8607 6.0086 10.4368 5.83301 9.99479 5.83301C9.55276 5.83301 9.12884 6.0086 8.81628 6.32116C8.50372 6.63372 8.32812 7.05765 8.32812 7.49967C8.32812 7.9417 8.50372 8.36562 8.81628 8.67819C9.12884 8.99075 9.55276 9.16634 9.99479 9.16634Z" stroke="#475569" stroke-width="1.25" stroke-linecap="round" stroke-linejoin="round"/>
</svg>
