<svg width="20" height="20" viewBox="0 0 20 20" fill="none" xmlns="http://www.w3.org/2000/svg">
<path d="M15 7.5C15 8.82608 14.4732 10.0979 13.5355 11.0355C12.5979 11.9732 11.3261 12.5 10 12.5C8.67392 12.5 7.40215 11.9732 6.46447 11.0355C5.52678 10.0979 5 8.82608 5 7.5C5 6.17392 5.52678 4.90215 6.46447 3.96447C7.40215 3.02678 8.67392 2.5 10 2.5C11.3261 2.5 12.5979 3.02678 13.5355 3.96447C14.4732 4.90215 15 6.17392 15 7.5Z" stroke="#475569" stroke-width="1.25" stroke-linecap="round" stroke-linejoin="round"/>
<path d="M6.66927 11.2266L5.83594 16.5932C5.83594 17.2682 7.32094 17.7066 7.8751 17.4049L9.6301 16.4491C9.74429 16.3865 9.8724 16.3537 10.0026 16.3537C10.1328 16.3537 10.2609 16.3865 10.3751 16.4491L12.1301 17.4049C12.6843 17.7066 14.1693 17.2674 14.1693 16.5924L13.3359 11.2266" stroke="#475569" stroke-width="1.25" stroke-linecap="round" stroke-linejoin="round"/>
</svg>
