<svg width="16" height="16" viewBox="0 0 16 16" fill="none" xmlns="http://www.w3.org/2000/svg">
<path d="M9.64597 13.354L4.64597 8.35403C4.59948 8.30759 4.5626 8.25245 4.53744 8.19175C4.51228 8.13105 4.49933 8.06599 4.49933 8.00028C4.49933 7.93457 4.51228 7.86951 4.53744 7.80881C4.5626 7.74811 4.59948 7.69296 4.64597 7.64653L9.64597 2.64653C9.73979 2.55271 9.86704 2.5 9.99972 2.5C10.1324 2.5 10.2597 2.55271 10.3535 2.64653C10.4473 2.74035 10.5 2.8676 10.5 3.00028C10.5 3.13296 10.4473 3.26021 10.3535 3.35403L5.7066 8.00028L10.3535 12.6465C10.3999 12.693 10.4368 12.7481 10.4619 12.8088C10.4871 12.8695 10.5 12.9346 10.5 13.0003C10.5 13.066 10.4871 13.131 10.4619 13.1917C10.4368 13.2524 10.3999 13.3076 10.3535 13.354C10.307 13.4005 10.2519 13.4373 10.1912 13.4625C10.1305 13.4876 10.0654 13.5006 9.99972 13.5006C9.93402 13.5006 9.86897 13.4876 9.80827 13.4625C9.74758 13.4373 9.69243 13.4005 9.64597 13.354Z" fill="#475569"/>
</svg>
