<svg width="20" height="20" viewBox="0 0 20 20" fill="none" xmlns="http://www.w3.org/2000/svg">
<path d="M12.0885 10.0003C12.0885 9.44779 11.869 8.91789 11.4783 8.52719C11.0876 8.13649 10.5577 7.91699 10.0052 7.91699C9.45267 7.91699 8.92277 8.13649 8.53207 8.52719C8.14137 8.91789 7.92188 9.44779 7.92188 10.0003C7.92188 10.5529 8.14137 11.0828 8.53207 11.4735C8.92277 11.8642 9.45267 12.0837 10.0052 12.0837C10.5577 12.0837 11.0876 11.8642 11.4783 11.4735C11.869 11.0828 12.0885 10.5529 12.0885 10.0003Z" stroke="#475569" stroke-width="1.25" stroke-linecap="round" stroke-linejoin="round"/>
<path d="M8.09674 3.03354C8.58091 2.62104 8.82341 2.41437 9.07674 2.29354C9.36589 2.15558 9.68221 2.08398 10.0026 2.08398C10.3229 2.08398 10.6393 2.15558 10.9284 2.29354C11.1817 2.41437 11.4242 2.62104 11.9084 3.03354C12.4076 3.45854 12.9142 3.67354 13.5809 3.72604C14.2151 3.77687 14.5326 3.8027 14.7976 3.89604C15.4092 4.1127 15.8909 4.59354 16.1067 5.20604C16.2001 5.4702 16.2259 5.7877 16.2767 6.4227C16.3292 7.08937 16.5434 7.5952 16.9684 8.09437C17.3817 8.57854 17.5884 8.82104 17.7092 9.07437C17.9892 9.6602 17.9892 10.341 17.7092 10.926C17.5884 11.1794 17.3817 11.4219 16.9692 11.906C16.5563 12.3694 16.3122 12.9589 16.2767 13.5785C16.2259 14.2127 16.2001 14.5302 16.1067 14.7952C15.9997 15.0973 15.8266 15.3716 15.5999 15.5981C15.3733 15.8246 15.0989 15.9976 14.7967 16.1044C14.5326 16.1977 14.2151 16.2235 13.5801 16.2744C12.9134 16.3269 12.4076 16.541 11.9084 16.966C11.4242 17.3794 11.1817 17.586 10.9284 17.7069C10.6393 17.8448 10.3229 17.9164 10.0026 17.9164C9.68221 17.9164 9.36589 17.8448 9.07674 17.7069C8.82341 17.586 8.58091 17.3794 8.09674 16.9669C7.63337 16.5539 7.04392 16.3098 6.42424 16.2744C5.79007 16.2235 5.47257 16.1977 5.20757 16.1044C4.90553 15.9974 4.63122 15.8242 4.40471 15.5976C4.17819 15.3709 4.00521 15.0965 3.89841 14.7944C3.80507 14.5302 3.77924 14.2127 3.72841 13.5777C3.69298 12.9584 3.44923 12.3693 3.03674 11.906C2.62341 11.4219 2.41674 11.1794 2.29507 10.926C2.15725 10.6368 2.08579 10.3205 2.08594 10.0001C2.08608 9.67974 2.15782 9.36345 2.29591 9.07437C2.41674 8.82104 2.62341 8.57854 3.03591 8.09437C3.46924 7.5852 3.67674 7.0752 3.72841 6.42187C3.77924 5.7877 3.80507 5.4702 3.89841 5.2052C4.0054 4.90316 4.17856 4.62885 4.40522 4.40234C4.63187 4.17582 4.90629 4.00284 5.20841 3.89604C5.47257 3.8027 5.79007 3.77687 6.42507 3.72604C7.04436 3.69061 7.63347 3.44603 8.09674 3.03354Z" stroke="#475569" stroke-width="1.25" stroke-linecap="round" stroke-linejoin="round"/>
</svg>
