<svg width="24" height="24" viewBox="0 0 24 24" fill="none" xmlns="http://www.w3.org/2000/svg">
<path d="M14 9.417C14.838 8.575 15.793 8 17 8C18.0609 8 19.0783 8.42143 19.8284 9.17157C20.5786 9.92172 21 10.9391 21 12C21 13.0609 20.5786 14.0783 19.8284 14.8284C19.0783 15.5786 18.0609 16 17 16C12.5 16 11.5 8 7 8C5.93913 8 4.92172 8.42143 4.17157 9.17157C3.42143 9.92172 3 10.9391 3 12C3 13.0609 3.42143 14.0783 4.17157 14.8284C4.92172 15.5786 5.93913 16 7 16C8.207 16 9.162 15.425 10 14.583" stroke="#5774F5" stroke-linecap="round" stroke-linejoin="round"/>
</svg>
