<svg width="20" height="20" viewBox="0 0 20 20" fill="none" xmlns="http://www.w3.org/2000/svg">
<path d="M12.5 7.8575V4.16667C12.5 3.72464 12.3244 3.30072 12.0118 2.98816C11.6993 2.67559 11.2754 2.5 10.8333 2.5H9.16667C8.72464 2.5 8.30072 2.67559 7.98816 2.98816C7.67559 3.30072 7.5 3.72464 7.5 4.16667V11.0717M12.5 7.8575V17.5M12.5 7.8575H15.8333C16.2754 7.8575 16.6993 8.03309 17.0118 8.34566C17.3244 8.65822 17.5 9.08214 17.5 9.52417V15.8333C17.5 16.2754 17.3244 16.6993 17.0118 17.0118C16.6993 17.3244 16.2754 17.5 15.8333 17.5H12.5M7.5 11.0717V17.5M7.5 11.0717H4.16667C3.72464 11.0717 3.30072 11.2473 2.98816 11.5598C2.67559 11.8724 2.5 12.2963 2.5 12.7383V15.8333C2.5 16.2754 2.67559 16.6993 2.98816 17.0118C3.30072 17.3244 3.72464 17.5 4.16667 17.5H7.5M12.5 17.5H7.5" stroke="#475569" stroke-width="1.25" stroke-linecap="round" stroke-linejoin="round"/>
</svg>
