<svg width="20" height="20" viewBox="0 0 20 20" fill="none" xmlns="http://www.w3.org/2000/svg">
<path d="M10.4665 17.35C10.3305 17.4477 10.1673 17.5002 9.99982 17.5002C9.83237 17.5002 9.66915 17.4477 9.53315 17.35C5.50898 14.4817 1.23815 8.58167 5.55565 4.31833C6.74094 3.15237 8.33718 2.49927 9.99982 2.5C11.6665 2.5 13.2657 3.15417 14.444 4.3175C18.7615 8.58083 14.4907 14.48 10.4665 17.35Z" stroke="#475569" stroke-width="1.25" stroke-linecap="round" stroke-linejoin="round"/>
<path d="M8 8.60283L9.14917 9.91533C9.17394 9.94316 9.20463 9.96511 9.23898 9.97956C9.27333 9.99401 9.31048 10.0006 9.34771 9.99884C9.38494 9.99709 9.4213 9.98703 9.45414 9.96941C9.48697 9.95178 9.51546 9.92704 9.5375 9.89699L11.8708 6.66699" stroke="#475569" stroke-width="1.25" stroke-linecap="round" stroke-linejoin="round"/>
</svg>
