<svg width="20" height="20" viewBox="0 0 20 20" fill="none" xmlns="http://www.w3.org/2000/svg">
<path d="M6.16667 2.89V17.11M13.6667 2.89V17.11M6.1675 6.2275H2.905M6.1675 10H2.5225M6.1675 13.7275H2.86M17.4175 6.2275H14.155M17.4175 10H13.7725M13.7275 10H5.4775M17.4175 13.7275H14.11M2.5 10C2.5 6.46417 2.5 4.69667 3.59833 3.59833C4.69667 2.5 6.465 2.5 10 2.5C13.535 2.5 15.3033 2.5 16.4017 3.59833C17.5 4.69667 17.5 6.465 17.5 10C17.5 13.535 17.5 15.3033 16.4017 16.4017C15.3033 17.5 13.535 17.5 10 17.5C6.465 17.5 4.69667 17.5 3.59833 16.4017C2.5 15.3033 2.5 13.535 2.5 10Z" stroke="#475569" stroke-width="1.25" stroke-linecap="round" stroke-linejoin="round"/>
</svg>
