<svg width="20" height="20" viewBox="0 0 20 20" fill="none" xmlns="http://www.w3.org/2000/svg">
<path d="M14.6774 16.4578C15.4817 16.4565 16.2526 16.1357 16.8205 15.5661C17.3884 14.9965 17.7068 14.2247 17.7057 13.4203C17.7068 12.616 17.3884 11.8441 16.8205 11.2745C16.2526 10.7049 15.4817 10.3841 14.6774 10.3828C13.8731 10.3841 13.1022 10.7049 12.5343 11.2745C11.9664 11.8441 11.648 12.616 11.6491 13.4203C11.648 14.2247 11.9664 14.9965 12.5343 15.5661C13.1022 16.1357 13.8731 16.4565 14.6774 16.4578ZM5.3174 16.4578C6.12174 16.4565 6.89263 16.1357 7.46053 15.5661C8.02843 14.9965 8.34684 14.2247 8.34573 13.4203C8.34684 12.616 8.02843 11.8441 7.46053 11.2745C6.89263 10.7049 6.12174 10.3841 5.3174 10.3828C4.51305 10.3841 3.74217 10.7049 3.17427 11.2745C2.60637 11.8441 2.28796 12.616 2.28907 13.4203C2.28796 14.2247 2.60637 14.9965 3.17427 15.5661C3.74217 16.1357 4.51305 16.4565 5.3174 16.4578Z" stroke="#475569" stroke-width="1.25" stroke-linecap="round" stroke-linejoin="round"/>
<path d="M8.34885 13.4204V5.13295C8.34885 2.62961 5.54552 3.43128 4.87385 5.13295C4.87385 5.13295 3.20385 10.3779 2.42969 12.5071M8.34885 9.57461C8.34885 9.57461 8.91635 10.1363 10.0005 10.1363C11.0847 10.1363 11.6522 9.57461 11.6522 9.57461M8.34885 12.6121C8.34885 12.6121 8.91635 13.1738 10.0005 13.1738C11.0847 13.1738 11.6522 12.6121 11.6522 12.6121M11.6522 13.4213V5.13295C11.6522 2.62961 14.4555 3.43128 15.1272 5.13295C15.1272 5.13295 16.7972 10.3779 17.5714 12.5071" stroke="#475569" stroke-width="1.25" stroke-linecap="round" stroke-linejoin="round"/>
</svg>
