<svg width="20" height="20" viewBox="0 0 20 20" fill="none" xmlns="http://www.w3.org/2000/svg">
<path d="M9.58333 2.5H7.83333C5.96667 2.5 5.03333 2.5 4.32 2.86333C3.69282 3.18291 3.18291 3.69282 2.86333 4.32C2.5 5.03333 2.5 5.96667 2.5 7.83333V12.1667C2.5 14.0333 2.5 14.9667 2.86333 15.68C3.18291 16.3072 3.69282 16.8171 4.32 17.1367C5.03333 17.5 5.96667 17.5 7.83333 17.5H12.1667C14.0333 17.5 14.9667 17.5 15.68 17.1367C16.3072 16.8171 16.8171 16.3072 17.1367 15.68C17.5 14.9667 17.5 14.0333 17.5 12.1667V10.4167M17.5 4.79167C17.5 5.39945 17.2586 5.98235 16.8288 6.41212C16.399 6.84189 15.8161 7.08333 15.2083 7.08333C14.6005 7.08333 14.0177 6.84189 13.5879 6.41212C13.1581 5.98235 12.9167 5.39945 12.9167 4.79167C12.9167 4.18388 13.1581 3.60098 13.5879 3.17121C14.0177 2.74144 14.6005 2.5 15.2083 2.5C15.8161 2.5 16.399 2.74144 16.8288 3.17121C17.2586 3.60098 17.5 4.18388 17.5 4.79167Z" stroke="#475569" stroke-width="1.25" stroke-linecap="round" stroke-linejoin="round"/>
</svg>
