<svg width="20" height="20" viewBox="0 0 20 20" fill="none" xmlns="http://www.w3.org/2000/svg">
<path d="M10.3642 14.05C10.2584 14.1254 10.1316 14.1659 10.0017 14.1659C9.87177 14.1659 9.74506 14.1254 9.63921 14.05C6.50921 11.8192 3.18671 7.23084 6.54504 3.915C7.46627 3.007 8.70821 2.49861 10.0017 2.5C11.2984 2.5 12.5417 3.00834 13.4584 3.91417C16.8167 7.23 13.4942 11.8175 10.3642 14.05Z" stroke="#475569" stroke-width="1.25" stroke-linecap="round" stroke-linejoin="round"/>
<path d="M5.41667 14.1663L3.75 17.4997H16.25L14.5833 14.1663M10 9.16634C10.442 9.16634 10.866 8.99075 11.1785 8.67819C11.4911 8.36562 11.6667 7.9417 11.6667 7.49967C11.6667 7.05765 11.4911 6.63372 11.1785 6.32116C10.866 6.0086 10.442 5.83301 10 5.83301C9.55797 5.83301 9.13405 6.0086 8.82149 6.32116C8.50893 6.63372 8.33333 7.05765 8.33333 7.49967C8.33333 7.9417 8.50893 8.36562 8.82149 8.67819C9.13405 8.99075 9.55797 9.16634 10 9.16634Z" stroke="#475569" stroke-width="1.25" stroke-linecap="round" stroke-linejoin="round"/>
</svg>
