<svg width="20" height="20" viewBox="0 0 20 20" fill="none" xmlns="http://www.w3.org/2000/svg">
<path d="M7.33333 16.8325C7.12212 17.044 6.87128 17.2118 6.59517 17.3263C6.31906 17.4409 6.02309 17.4999 5.72417 17.5H2.5V14.2966C2.5 13.6933 2.74 13.1141 3.16667 12.6875M7.33333 16.8325L3.16667 12.6875M7.33333 16.8325L15.645 8.51746M3.16667 12.6875L11.4867 4.3583L12.675 3.1683C12.8865 2.95651 13.1376 2.78848 13.414 2.67381C13.6905 2.55914 13.9868 2.50008 14.2861 2.5C14.5854 2.49992 14.8817 2.55883 15.1582 2.67336C15.4347 2.78789 15.6859 2.95579 15.8975 3.16746L16.8358 4.10663C17.2629 4.53374 17.5029 5.11302 17.5029 5.71705C17.5029 6.32107 17.2629 6.90035 16.8358 7.32746L15.645 8.51746M15.645 8.51746L11.4858 4.3583" stroke="#475569" stroke-width="1.25" stroke-linecap="round" stroke-linejoin="round"/>
</svg>
