<svg width="20" height="20" viewBox="0 0 20 20" fill="none" xmlns="http://www.w3.org/2000/svg">
<path d="M2.5 13.7503H15.8333C16.2754 13.7503 16.6993 13.5747 17.0118 13.2622C17.3244 12.9496 17.5 12.5257 17.5 12.0837V2.91699M11.6667 5.41699H7.5M11.6667 5.41699C11.6667 2.23283 7.5 2.23783 7.5 5.41699M11.6667 5.41699H14.1667C14.3877 5.41699 14.5996 5.50479 14.7559 5.66107C14.9122 5.81735 15 6.02931 15 6.25033V10.417C15 10.638 14.9122 10.85 14.7559 11.0062C14.5996 11.1625 14.3877 11.2503 14.1667 11.2503H5C4.77899 11.2503 4.56702 11.1625 4.41074 11.0062C4.25446 10.85 4.16667 10.638 4.16667 10.417V6.25033C4.16667 6.02931 4.25446 5.81735 4.41074 5.66107C4.56702 5.50479 4.77899 5.41699 5 5.41699H7.5M4.16667 15.417C4.16667 15.859 4.34226 16.2829 4.65482 16.5955C4.96738 16.9081 5.39131 17.0837 5.83333 17.0837C6.27536 17.0837 6.69928 16.9081 7.01184 16.5955C7.3244 16.2829 7.5 15.859 7.5 15.417C7.5 14.975 7.3244 14.551 7.01184 14.2385C6.69928 13.9259 6.27536 13.7503 5.83333 13.7503C5.39131 13.7503 4.96738 13.9259 4.65482 14.2385C4.34226 14.551 4.16667 14.975 4.16667 15.417ZM11.6667 15.417C11.6667 15.859 11.8423 16.2829 12.1548 16.5955C12.4674 16.9081 12.8913 17.0837 13.3333 17.0837C13.7754 17.0837 14.1993 16.9081 14.5118 16.5955C14.8244 16.2829 15 15.859 15 15.417C15 14.975 14.8244 14.551 14.5118 14.2385C14.1993 13.9259 13.7754 13.7503 13.3333 13.7503C12.8913 13.7503 12.4674 13.9259 12.1548 14.2385C11.8423 14.551 11.6667 14.975 11.6667 15.417Z" stroke="#1E293B" stroke-width="1.25" stroke-linecap="round" stroke-linejoin="round"/>
</svg>
