<svg width="20" height="20" viewBox="0 0 20 20" fill="none" xmlns="http://www.w3.org/2000/svg">
<path d="M17.5 10C17.5 10.9849 17.306 11.9602 16.9291 12.8701C16.5522 13.7801 15.9997 14.6069 15.3033 15.3033C14.6069 15.9997 13.7801 16.5522 12.8701 16.9291C11.9602 17.306 10.9849 17.5 10 17.5C9.01509 17.5 8.03982 17.306 7.12987 16.9291C6.21993 16.5522 5.39314 15.9997 4.6967 15.3033C4.00026 14.6069 3.44781 13.7801 3.0709 12.8701C2.69399 11.9602 2.5 10.9849 2.5 10C2.5 8.01088 3.29018 6.10322 4.6967 4.6967C6.10322 3.29018 8.01088 2.5 10 2.5C11.9891 2.5 13.8968 3.29018 15.3033 4.6967C16.7098 6.10322 17.5 8.01088 17.5 10Z" stroke="#475569" stroke-width="1.25" stroke-linecap="round" stroke-linejoin="round"/>
<path d="M8.57792 7.91699C8.38298 7.91688 8.18994 7.9552 8.00982 8.02974C7.8297 8.10429 7.66605 8.21361 7.52821 8.35145C7.39037 8.48929 7.28105 8.65295 7.2065 8.83306C7.13195 9.01318 7.09364 9.20623 7.09375 9.40116C7.09375 11.042 9.90625 12.917 9.90625 12.917C9.90625 12.917 12.7188 11.042 12.7188 9.40116C12.7188 8.38533 12.0546 7.91699 11.2346 7.91699C10.6529 7.91699 10.1496 8.25033 9.90625 8.73783C9.78305 8.49103 9.59348 8.28347 9.35883 8.13847C9.12418 7.99347 8.85375 7.91678 8.57792 7.91699Z" stroke="#475569" stroke-width="1.25" stroke-linecap="round" stroke-linejoin="round"/>
</svg>
